<?xml version="1.0" encoding="UTF-8"?>
<svg width="46px" height="51px" viewBox="0 0 46 51" version="1.1" xmlns="http://www.w3.org/2000/svg" xmlns:xlink="http://www.w3.org/1999/xlink">
    <!-- Generator: Sketch 60.1 (88133) - https://sketch.com -->
    <title>Group</title>
    <desc>Created with Sketch.</desc>
    <g id="Symbols" stroke="none" stroke-width="1" fill="none" fill-rule="evenodd">
        <g id="Stat-Bar/awards" transform="translate(-8.000000, -4.000000)" fill-rule="nonzero">
            <g id="count-awards">
                <path d="M80,60 L30,60 C13.45,60 0,46.55 0,30 L0,30 C0,13.45 13.45,0 30,0 L80,0 C96.55,0 110,13.45 110,30 L110,30 C110,46.55 96.55,60 80,60 Z" id="Path" fill="#D0DDED"></path>
                <g id="Group" transform="translate(8.000000, 4.500000)">
                    <path d="M43.1,25.5 C43.1,21.45 45.6,16.75 43.75,13.5 C41.8,10.15 36.4,9.95 33,8 C29.75,6.1 26.95,1.45 22.9,1.45 C18.85,1.45 16.1,6.1 12.8,8 C9.45,9.95 4,10.1 2.05,13.45 C0.15,16.7 2.7,21.45 2.7,25.45 C2.7,29.45 0.2,34.2 2.05,37.45 C4,40.8 9.4,41 12.8,42.9 C16.05,44.8 18.85,49.45 22.9,49.45 C26.95,49.45 29.75,44.85 33,42.95 C36.35,41 41.8,40.85 43.75,37.5 C45.65,34.25 43.1,29.5 43.1,25.5 Z" id="Path" fill="#FEBE10"></path>
                    <circle id="Oval" fill="#FFF200" cx="22.9" cy="25.5" r="14.5"></circle>
                    <path d="M32.45,21.65 L25.85,21.65 L23.8,15.4 C23.65,14.9 23.1,14.65 22.6,14.8 C22.3,14.9 22.1,15.15 22,15.4 L20,21.65 L13.4,21.65 C12.85,21.65 12.45,22.1 12.45,22.6 C12.45,22.9 12.6,23.2 12.85,23.35 L18.2,27.25 L16.1,33.5 C15.95,34 16.2,34.55 16.7,34.7 C17,34.8 17.3,34.75 17.55,34.55 L22.9,30.65 L28.25,34.55 C28.65,34.85 29.3,34.75 29.6,34.35 C29.8,34.1 29.85,33.8 29.75,33.5 L27.7,27.25 L33,23.35 C33.4,23.05 33.5,22.45 33.2,22 C33.05,21.8 32.75,21.65 32.45,21.65 Z" id="Path" fill="#ED1558"></path>
                    <path d="M43.75,13.5 C43.7,13.4 43.65,13.35 43.6,13.3 C42.2,16 39.2,20.25 37.3,22.6 C38.55,29.6 34.95,36.6 27.6,39.3 C21.15,40.65 18.85,39.8 14.15,36.7 C11.25,37.25 5.65,38.05 2.75,38.05 C2.65,38.05 2.55,38.05 2.45,38.05 C4.6,40.95 9.65,41.2 12.85,43.05 C16.1,44.95 18.9,49.6 22.95,49.6 C27,49.6 29.75,44.85 33,43 C36.35,41.05 41.8,40.9 43.75,37.55 C45.65,34.3 43.1,29.55 43.1,25.55 C43.1,21.55 45.65,16.75 43.75,13.5 Z" id="Path" fill="#FAA61A"></path>
                    <path d="M28.6,30.05 L29.7,33.5 C29.85,34 29.6,34.55 29.1,34.7 C28.8,34.8 28.5,34.75 28.25,34.55 L25,32.25 C20.75,34.6 18.85,35.75 14.1,36.65 C19.35,40.75 27.15,40.95 33.15,35.35 C36.6,31.4 38.15,27.15 37.25,22.55 C34.45,26.1 32.35,27.5 28.6,30.05 Z" id="Path" fill="#F7C514"></path>
                    <path d="M29.75,33.55 L28.65,30.1 C27.5,30.9 26.3,31.6 25.05,32.3 L28.3,34.65 C28.7,34.95 29.35,34.85 29.65,34.45 C29.75,34.15 29.85,33.85 29.75,33.55 Z" id="Path" fill="#CA1F28"></path>
                    <path d="M7.8,42.1 L8.35,42.25 C9.75,42.65 11.05,43.15 12.35,43.8 C13.5,44.55 14.6,45.4 15.55,46.4 L15.9,46.7 L17.35,47.95 C18.85,49.4 20.85,50.3 22.95,50.45 C25.05,50.3 27.05,49.45 28.55,47.95 L30.3,46.35 C31.25,45.35 32.35,44.5 33.5,43.75 C34.75,43.1 36.1,42.55 37.5,42.2 L38.05,42.05 L40,41.35 C41.9,40.8 43.55,39.55 44.65,37.9 C46,35.5 45.4,32.6 44.8,29.8 C44.45,28.35 44.2,26.9 44.15,25.4 C44.2,23.9 44.45,22.45 44.8,21 C45.4,18.2 46,15.3 44.65,12.9 C43.2,10.45 40.35,9.5 37.55,8.65 C36.15,8.25 34.85,7.75 33.55,7.1 C32.4,6.35 31.3,5.5 30.35,4.5 C28.3,2.6 25.95,0.4 22.95,0.4 C19.95,0.4 17.65,2.55 15.55,4.45 C14.6,5.45 13.5,6.3 12.35,7.05 C11.1,7.7 9.75,8.25 8.35,8.6 C5.55,9.6 2.7,10.5 1.25,13 C-0.15,15.4 0.5,18.3 1.1,21.1 C1.45,22.55 1.7,24 1.75,25.5 C1.7,27 1.45,28.45 1.1,29.9 C0.5,32.7 -0.1,35.6 1.25,38 C2.35,39.65 4,40.85 5.9,41.45 L7.8,42.1 Z M42.85,30.3 C43.4,32.85 43.9,35.3 42.9,37.05 C41.85,38.85 39.45,39.65 36.9,40.45 C35.4,40.85 33.9,41.45 32.5,42.2 C31.2,43 30.05,44 28.95,45.05 C26.95,46.9 25.1,48.6 22.9,48.6 C20.7,48.6 18.8,46.85 16.85,45.05 C15.75,43.95 14.6,43 13.3,42.2 C11.9,41.45 10.45,40.9 8.9,40.45 C6.35,39.65 3.95,38.9 2.9,37.05 C1.9,35.3 2.4,32.9 2.95,30.3 C3.35,28.7 3.6,27.1 3.65,25.5 C3.6,23.9 3.35,22.25 2.95,20.7 C2.4,18.15 1.9,15.7 2.9,13.95 C3.95,12.15 6.35,11.35 8.9,10.55 C10.4,10.15 11.9,9.55 13.3,8.8 C14.6,8 15.75,7 16.85,5.95 C18.85,4.1 20.7,2.4 22.9,2.4 C25.1,2.4 27,4.15 28.95,5.95 C30.05,7.05 31.2,8 32.5,8.8 C33.9,9.55 35.35,10.1 36.9,10.55 C39.45,11.35 41.85,12.1 42.9,13.95 C43.9,15.7 43.4,18.1 42.85,20.7 C42.45,22.3 42.2,23.9 42.15,25.5 C42.2,27.1 42.45,28.75 42.85,30.3 Z" id="Shape" fill="#333333"></path>
                    <path d="M32.45,20.7 L26.6,20.7 L24.75,15.1 C24.4,14.1 23.35,13.55 22.3,13.85 C21.7,14.05 21.25,14.5 21.05,15.1 L19.25,20.7 L13.4,20.7 C12.35,20.7 11.45,21.55 11.45,22.6 C11.45,23.2 11.75,23.8 12.25,24.15 L17,27.6 L15.2,33.2 C14.85,34.2 15.45,35.3 16.45,35.6 C17.05,35.8 17.7,35.7 18.15,35.35 L22.9,31.9 L27.65,35.35 C28.35,35.85 29.25,35.85 29.9,35.35 C30.6,34.85 30.85,34 30.6,33.2 L28.8,27.6 L33.55,24.15 C34.4,23.55 34.6,22.3 33.95,21.45 C33.65,21 33.05,20.7 32.45,20.7 Z M32.45,22.6 L27.1,26.45 C26.75,26.7 26.6,27.15 26.75,27.55 L28.8,33.8 L23.5,29.95 C23.15,29.7 22.7,29.7 22.35,29.95 L17,33.85 L19.05,27.6 C19.2,27.2 19.05,26.75 18.7,26.5 L13.35,22.6 L19.95,22.6 C20.35,22.6 20.75,22.35 20.85,21.95 L22.9,15.7 L24.95,21.95 C25.1,22.35 25.45,22.6 25.85,22.6 L32.45,22.6 Z" id="Shape" fill="#333333"></path>
                    <path d="M38.15,25.5 C38.15,17.1 31.3,10.25 22.9,10.25 C20.6,10.25 18.4,10.75 16.35,11.7 C15.8,11.95 15.6,12.6 15.85,13.15 C16.1,13.7 16.75,13.9 17.3,13.65 C19.05,12.8 20.95,12.4 22.9,12.4 C30.15,12.4 36,18.25 36,25.5 C36,32.75 30.15,38.55 22.95,38.55 C15.75,38.55 9.85,32.7 9.85,25.5 C9.85,23.6 10.25,21.75 11.05,20.05 C11.3,19.5 11.05,18.85 10.5,18.6 C9.95,18.35 9.3,18.6 9.05,19.15 C8.1,21.15 7.65,23.3 7.65,25.55 C7.65,33.95 14.5,40.8 22.9,40.8 C31.3,40.8 38.15,33.9 38.15,25.5 L38.15,25.5 Z" id="Path" fill="#333333"></path>
                    <path d="M12.85,16.65 C13.45,16.65 13.95,16.15 13.95,15.55 C13.95,14.95 13.45,14.45 12.85,14.45 L12.85,14.45 C12.25,14.45 11.75,14.95 11.75,15.55 C11.75,16.15 12.25,16.65 12.85,16.65 Z" id="Path" fill="#333333"></path>
                </g>
            </g>
        </g>
    </g>
</svg>