<?xml version="1.0" encoding="UTF-8"?>
<svg width="46px" height="48px" viewBox="0 0 46 48" version="1.1" xmlns="http://www.w3.org/2000/svg" xmlns:xlink="http://www.w3.org/1999/xlink">
    <!-- Generator: Sketch 60.1 (88133) - https://sketch.com -->
    <title>Gift/key</title>
    <desc>Created with Sketch.</desc>
    <g id="Symbols" stroke="none" stroke-width="1" fill="none" fill-rule="evenodd">
        <g id="Stat-Bar/keys" transform="translate(-12.000000, -5.000000)">
            <g id="count-keys">
                <path d="M80,60 L30,60 C13.45,60 0,46.55 0,30 L0,30 C0,13.45 13.45,0 30,0 L80,0 C96.55,0 110,13.45 110,30 L110,30 C110,46.55 96.55,60 80,60 Z" id="Path" fill="#D0DDED" fill-rule="nonzero"></path>
                <g id="Gift/key" transform="translate(12.000000, 5.000000)">
                    <g id="Group">
                        <path d="M24.75,4.75 C22.7,7.25 22.7,10.9 24.3,14.3 C25.35,16.65 25,19.4 23.4,21.35 L5.7,43.15 C5.65,43.2 5.6,43.25 5.55,43.35 C4.85,44.4 5.1,45.9 6.2,46.6 C7.2,47.25 8.55,47.05 9.3,46.1 L26.95,24.35 C28.55,22.35 31.1,21.5 33.55,22.1 C37.15,23.1 40.65,22.35 42.65,19.85 C44.2,17.95 44.6,15.35 43.95,12.7 C43.6,11.4 43.55,10 43.8,8.65 C44.05,7.45 43.9,6.15 43.45,5 C42.15,1.75 38.5,0.15 35.3,1.5 C34.05,2 32.7,2.2 31.4,2.1 C28.75,1.95 26.35,2.8 24.75,4.75 L24.75,4.75 Z M36.15,9.3 C35.1,8.4 34.95,6.85 35.8,5.8 C35.8,5.8 35.8,5.8 35.8,5.8 C36.65,4.75 38.2,4.6 39.25,5.45 C40.3,6.35 40.45,7.9 39.6,8.95 C38.75,10.05 37.2,10.2 36.15,9.3 L36.15,9.3 Z" id="Shape" fill="#FFDD50" fill-rule="nonzero"></path>
                        <polygon id="Path" fill="#FF9711" fill-rule="nonzero" points="6.4 42.3 1 37.8 4.55 33.4 9.95 37.9"></polygon>
                        <polygon id="Path" fill="#FF9711" fill-rule="nonzero" points="11.9 35.55 8.45 32.65 11.2 29.25 14.65 32.15"></polygon>
                        <g fill="#333333" fill-rule="nonzero">
                            <path d="M16.3,36.4 C16.05,36.4 15.8,36.55 15.65,36.75 L15.45,37 C15.3,37.2 15.2,37.45 15.25,37.7 C15.25,37.95 15.4,38.2 15.6,38.35 C15.75,38.5 16,38.55 16.2,38.55 C16.25,38.55 16.25,38.55 16.3,38.55 C16.55,38.55 16.8,38.4 16.95,38.2 L17.15,37.95 C17.5,37.55 17.4,36.95 17,36.6 C16.8,36.45 16.55,36.4 16.3,36.4 Z" id="Path"></path>
                            <path d="M14.9,39.15 C14.7,39 14.45,38.9 14.2,38.95 C13.95,39 13.7,39.1 13.55,39.3 L8.55,45.45 C8.1,46 7.3,46.15 6.7,45.8 C6.4,45.6 6.15,45.25 6.1,44.85 C6.05,44.45 6.15,44.1 6.4,43.8 L24.1,22 C25.95,19.75 26.35,16.6 25.15,13.9 C24.25,12.1 23.95,10.15 24.2,8.15 L24,8.1 L24,8.1 L24,8.1 L24,8.1 L24.2,8.1 C24.3,7.6 23.95,7.05 23.4,7 C23.15,6.95 22.9,7 22.7,7.15 C22.5,7.3 22.35,7.5 22.3,7.8 C21.95,10.2 22.3,12.6 23.4,14.7 C24.3,16.7 24,19.05 22.6,20.7 L14.55,30.75 L11.85,28.45 C11.65,28.3 11.4,28.2 11.15,28.25 C10.9,28.25 10.65,28.4 10.5,28.6 L7.7,32 C7.4,32.4 7.45,33 7.85,33.35 C8.05,33.5 8.3,33.6 8.55,33.6 C8.8,33.6 9.05,33.45 9.2,33.25 L11.35,30.6 L13.35,32.25 L9.9,36.55 L5.25,32.7 C5.05,32.55 4.8,32.45 4.55,32.5 C4.3,32.5 4.05,32.65 3.9,32.85 L0.35,37.25 L0.35,37.25 L0.35,37.25 C-5.21804822e-15,37.65 0.1,38.25 0.5,38.6 L5.15,42.45 L5,42.55 C4.45,43.25 4.2,44.1 4.25,44.95 L4.25,45.1 C4.4,46 4.9,46.85 5.65,47.4 C6.2,47.75 6.85,47.95 7.45,47.95 C8.4,47.95 9.4,47.5 10.05,46.7 L15.05,40.5 C15.4,40.1 15.35,39.5 14.9,39.15 Z M8.65,38.05 L6.3,40.95 L2.4,37.7 L4.75,34.8 L8.65,38.05 Z" id="Shape"></path>
                            <path d="M44.9,12.45 C44.6,11.25 44.55,10 44.75,8.85 C45.25,6.2 44.3,3.5 42.25,1.75 L42.25,1.75 C40.2,0 37.4,-0.4 34.95,0.6 C33.85,1.05 32.65,1.2 31.45,1.15 C29.8,1.05 28.15,1.35 26.65,2.05 C26.2,2.3 26,2.85 26.2,3.35 C26.3,3.6 26.5,3.75 26.75,3.85 C27,3.95 27.25,3.9 27.45,3.8 C28.65,3.25 30,3 31.35,3.05 C32.8,3.15 34.3,2.9 35.7,2.4 C36.65,2 37.7,1.9 38.75,2.1 C41.6,2.7 43.5,5.55 42.9,8.45 C42.65,9.9 42.7,11.45 43.05,12.9 C43.65,15.35 43.25,17.6 41.95,19.2 C40.2,21.35 37.15,22.05 33.8,21.15 C31,20.4 28,21.4 26.2,23.7 L17.55,34.4 C17.2,34.8 17.3,35.4 17.7,35.75 C17.85,35.9 18.1,35.95 18.3,35.95 C18.35,35.95 18.35,35.95 18.4,35.95 C18.65,35.95 18.9,35.8 19.05,35.6 L27.7,24.9 C29.05,23.2 31.25,22.45 33.3,23 C37.35,24.1 41.2,23.15 43.4,20.45 C45.15,18.35 45.65,15.55 44.9,12.45 Z" id="Path"></path>
                            <path d="M37.55,5.9 C37.95,5.85 38.35,6 38.65,6.25 C38.85,6.4 39.1,6.5 39.35,6.45 C39.6,6.45 39.85,6.3 40,6.1 C40.3,5.7 40.3,5.1 39.9,4.75 L39.85,4.7 C39.15,4.1 38.25,3.85 37.35,3.9 C36.45,4 35.65,4.45 35.05,5.15 C33.85,6.6 34.05,8.8 35.5,10 C36.1,10.5 36.9,10.8 37.65,10.8 C37.75,10.8 37.85,10.8 37.95,10.8 C38.85,10.7 39.65,10.25 40.25,9.55 C40.6,9.15 40.5,8.5 40.1,8.2 C39.9,8.05 39.65,7.95 39.4,8 C39.15,8.05 38.9,8.15 38.75,8.35 C38.5,8.65 38.15,8.85 37.75,8.9 C37.35,8.95 36.95,8.8 36.65,8.55 C36,8 35.9,7.05 36.45,6.4 C36.8,6.1 37.15,5.9 37.55,5.9 Z" id="Path"></path>
                            <path d="M24.15,5.5 C24.3,5.65 24.55,5.7 24.75,5.7 C24.8,5.7 24.8,5.7 24.85,5.7 C25.1,5.65 25.35,5.55 25.5,5.35 C25.55,5.3 25.6,5.25 25.65,5.2 L25.65,5.2 C26,4.8 25.95,4.2 25.55,3.85 C25.35,3.7 25.1,3.6 24.85,3.6 C24.6,3.6 24.35,3.75 24.2,3.95 C24.15,4.05 24.05,4.1 24,4.2 C23.7,4.55 23.75,5.15 24.15,5.5 Z" id="Path"></path>
                        </g>
                    </g>
                </g>
            </g>
        </g>
    </g>
</svg>