<?xml version="1.0" encoding="UTF-8"?>
<svg width="64px" height="64px" viewBox="0 0 64 64" version="1.1" xmlns="http://www.w3.org/2000/svg" xmlns:xlink="http://www.w3.org/1999/xlink">
    <!-- Generator: Sketch 60.1 (88133) - https://sketch.com -->
    <title>Gift/closed/locked</title>
    <desc>Created with Sketch.</desc>
    <g id="Page-1" stroke="none" stroke-width="1" fill="none" fill-rule="evenodd">
        <g id="main-screen" transform="translate(-19.000000, -668.000000)">
            <rect fill="#FFFFFF" x="0" y="0" width="414" height="1560"></rect>
            <g id="Calendar" transform="translate(1.000000, 652.000000)">
                <g id="day">
                    <rect id="Rectangle" x="0" y="0" width="103" height="103"></rect>
                    <g id="Gift/closed/locked" transform="translate(18.000000, 16.000000)">
                        <g id="gift-inactive" stroke-width="1">
                            <polygon id="Path" fill="#D8D8D8" fill-rule="nonzero" points="62.8875 13.75 0.9875 13.75 0.9875 26.9625 5.4875 26.9625 5.4875 62.85 58.3875 62.85 58.3875 26.9625 62.8875 26.9625"></polygon>
                            <polygon id="Path" fill="#B5B5B5" fill-rule="nonzero" points="5.4875 25.975 58.3875 25.975 58.3875 31.3 5.4875 31.3"></polygon>
                            <path d="M53.8625,44.475 C52.625,37.5375 50.275,30.875 46.925,24.725 C44.9625,21.1375 42.6625,17.725 40.05,14.55 C39.75,14.1875 39.4375,13.8125 39.125,13.45 C37.8,14.5875 36.475,15.725 35.15,16.8625 C34.0125,17.8375 32.875,18.825 31.725,19.8125 C30.825,19.0375 29.925,18.2625 29.0125,17.475 C27.6875,16.3375 26.3625,15.2 25.0375,14.0625 C24.725,14.425 24.4125,14.7875 24.1125,15.1625 C21.4875,18.3375 19.1875,21.75 17.2375,25.3375 C13.95,31.4125 11.6125,38 10.375,44.85 C10.2375,45.5875 11.1,46.1 11.675,45.625 C13.3375,44.25 15.0375,43 16.775,41.8625 C17.775,43.7 18.85,45.45 20.0125,47.1125 C20.425,47.7 21.325,47.4875 21.4625,46.7875 C22.65,40.275 25.0375,34.05 28.475,28.4375 C29.6375,26.525 30.9375,24.6875 32.3375,22.925 C33.5625,24.5 34.6875,26.1375 35.725,27.825 C39.2,33.5 41.6,39.7875 42.775,46.3875 C42.8875,47.0125 43.7,47.2 44.0625,46.675 C45.2625,44.975 46.3875,43.1625 47.4125,41.25 C49.2125,42.425 50.975,43.725 52.6875,45.1625 C53.2,45.575 53.975,45.1375 53.8625,44.475 Z" id="Path" fill="#B5B5B5" fill-rule="nonzero"></path>
                            <path d="M31.9375,18.125 C31.5375,18.5875 31.1375,19.0625 30.75,19.55 C29.3125,21.3375 28,23.2 26.8125,25.15 C23.05,31.3125 20.5375,38.1875 19.4875,45.3875 C17.9,43.2875 16.4375,41.0125 15.125,38.575 C12.8125,40.0875 10.5375,41.8125 8.3625,43.7625 C9.4875,36.125 11.95,28.7875 15.6125,22.0625 C17.575,18.475 19.875,15.0625 22.4875,11.8875 C22.7875,11.5125 23.1,11.15 23.4125,10.7875 C24.7375,11.925 26.0625,13.0625 27.3875,14.2 C28.7375,15.3625 30.0875,16.525 31.45,17.7 C31.6125,17.85 31.775,17.9875 31.9375,18.125 Z" id="Path" fill="#D8D8D8" fill-rule="nonzero"></path>
                            <path d="M55.5125,43.7625 C53.3375,41.8125 51.0625,40.0875 48.75,38.575 C47.4375,41.0125 45.975,43.2875 44.3875,45.3875 C43.3375,38.1875 40.825,31.3 37.0625,25.15 C35.875,23.2125 34.5625,21.3375 33.125,19.55 C32.7375,19.075 32.35,18.6 31.9375,18.125 C32.1,17.9875 32.2625,17.8375 32.4375,17.7 C33.7875,16.5375 35.15,15.3625 36.5,14.2 C37.825,13.0625 39.15,11.925 40.475,10.7875 C40.7875,11.15 41.1,11.5125 41.4,11.8875 C44.025,15.0625 46.325,18.475 48.275,22.0625 C51.925,28.775 54.3875,36.125 55.5125,43.7625 Z" id="Path" fill="#D8D8D8" fill-rule="nonzero"></path>
                            <path d="M48.2625,22.0625 L37.05,25.15 C35.8625,23.2125 34.55,21.3375 33.1125,19.55 L32.425,17.7 L31.925,16.3625 L36.475,14.2 L41.3625,11.875 C44,15.0625 46.3,18.475 48.2625,22.0625 Z" id="Path" fill="#B5B5B5" fill-rule="nonzero"></path>
                            <path d="M31.9375,16.375 L31.4375,17.7125 L30.75,19.5625 C29.3125,21.35 28,23.2125 26.8125,25.1625 L15.6125,22.075 C17.575,18.4875 19.875,15.075 22.4875,11.9 L27.375,14.225 L31.9375,16.375 Z" id="Path" fill="#B5B5B5" fill-rule="nonzero"></path>
                            <g id="Group" transform="translate(6.125000, 0.875000)" fill="#D8D8D8" fill-rule="nonzero">
                                <path d="M43.7,0.5375 L25.8125,9.025 L29.25,18.2625 L48.3375,13.0125 C50.8375,12.325 52.2,9.65 51.3,7.225 L49.725,2.9875 C48.825,0.5625 46.0375,-0.575 43.7,0.5375 Z" id="Path"></path>
                                <path d="M7.925,0.5375 L25.8125,9.025 L22.375,18.275 L3.2875,13.025 C0.7875,12.3375 -0.575,9.6625 0.325,7.2375 L1.9,3 C2.8,0.5625 5.5875,-0.575 7.925,0.5375 Z" id="Path"></path>
                                <path d="M28.6125,5.85 L23,5.85 C21.4625,5.85 20.225,7.1 20.225,8.625 L20.225,16.775 C20.225,18.3125 21.475,19.55 23,19.55 L28.6125,19.55 C30.15,19.55 31.3875929,18.3 31.3875929,16.775 L31.3875929,8.6375 C31.4,7.1 30.15,5.85 28.6125,5.85 Z" id="Path"></path>
                                <polygon id="Path" points="20.8875 26.0875 30.75 26.0875 30.75 61.975 20.8875 61.975"></polygon>
                            </g>
                            <polygon id="Path" fill="#B5B5B5" fill-rule="nonzero" points="27.0125 26.9625 36.875 26.9625 36.875 31.3 27.0125 31.3"></polygon>
                            <path d="M62.8875,12.7625 L57.6875,12.7625 C57.8375,12.55 57.975,12.325 58.1,12.1 C58.7875,10.75 58.875,9.175 58.35,7.7625 L56.775,3.525 C56.25,2.1125 55.15,0.975 53.75,0.4 C52.35,-0.1625 50.7625,-0.125 49.4,0.525 L36.925,6.45 C36.3125,6.0125 35.55,5.75 34.7375,5.75 L29.125,5.75 C28.3125,5.75 27.5625,6.0125 26.9375,6.45 L14.475,0.525 C13.1125,-0.125 11.525,-0.175 10.125,0.4 C8.725,0.9625 7.625,2.1 7.1,3.525 L5.525,7.75 C5,9.1625 5.0875,10.75 5.775,12.0875 C5.9,12.325 6.0375,12.55 6.1875,12.75 L0.9875,12.75 C0.4375,12.75 0,13.1875 0,13.7375 L0,20.8375 C0,21.3875 0.4375,21.825 0.9875,21.825 C1.5375,21.825 1.975,21.3875 1.975,20.8375 L1.975,14.725 L8.825,14.725 C8.9375,14.7625 9.05,14.8 9.1625,14.825 L17.4375,17.1 C15.6,19.9125 13.975,22.8875 12.5875,25.95 L1.975,25.95 L1.975,24.7625 C1.975,24.2125 1.5375,23.775 0.9875,23.775 C0.4375,23.775 0,24.25 0,24.7875 L0,26.9625 C0,27.5125 0.4375,27.95 0.9875,27.95 L4.5,27.95 L4.5,62.85 C4.5,63.4 4.9375,63.8375 5.4875,63.8375 L58.3875,63.8375 C58.9375,63.8375 59.375,63.4 59.375,62.85 L59.375,57.125 C59.375,56.575 58.9375,56.1375 58.3875,56.1375 C57.8375,56.1375 57.4,56.575 57.4,57.125 L57.4,61.8625 L37.85,61.8625 L37.85,28.55 C40.6375,33.8375 42.5375,39.5875 43.4,45.5375 C43.4625,45.925 43.75,46.25 44.1375,46.35 C44.2125,46.375 44.3,46.375 44.3875,46.375 C44.6875,46.375 44.9875,46.2375 45.175,45.9875 C46.5875,44.1125 47.9125,42.1 49.1,39.9875 C51.0875,41.35 53.025,42.8625 54.8625,44.5 C55.175,44.775 55.625,44.825 55.9875,44.6375 C56.35,44.4375 56.55,44.0375 56.5,43.625 C55.7125,38.25 54.25,32.975 52.1625,27.95 L57.4125,27.95 L57.4125,53.1875 C57.4125,53.7375 57.85,54.175 58.4,54.175 C58.95,54.175 59.3875,53.7375 59.3875,53.1875 L59.3875,27.95 L62.9,27.95 C63.45,27.95 63.8875,27.5125 63.8875,26.9625 L63.8875,13.75 C63.875,13.2 63.4375,12.7625 62.8875,12.7625 Z M50.25,2.3 C51.125,1.8875 52.1125,1.85 53.0125,2.225 C53.9125,2.5875 54.6,3.3 54.9375,4.2 L56.5,8.4375 C56.8375,9.35 56.775,10.325 56.3375,11.2 C55.9,12.0625 55.1375,12.6875 54.2,12.9375 L38.5125,17.2625 L38.5125,12.525 C42.0375,10.3625 50.8375,5.9125 53.025,9 C53.3375,9.45 53.95,9.55 54.4,9.2375 C54.85,8.925 54.95,8.3125 54.6375,7.8625 C52.95,5.475 49.3875,5.3625 44.0625,7.5125 C41.8625,8.4 39.8375,9.4875 38.525,10.2375 L38.525,9.5125 C38.525,8.9875 38.4125,8.4875 38.2125,8.025 L50.25,2.3 Z M29.1375,7.7125 L34.75,7.7125 C35.7375,7.7125 36.55,8.5125 36.55,9.5125 L36.55,17.6625 C36.55,18.65 35.75,19.4625 34.75,19.4625 L29.1375,19.4625 C28.15,19.4625 27.3375,18.6625 27.3375,17.6625 L27.3375,9.5125 C27.3375,8.525 28.15,7.7125 29.1375,7.7125 Z M27.475,25.975 C28.4125,24.4125 29.45,22.8875 30.55,21.425 L33.325,21.425 C34.425,22.8875 35.45,24.4125 36.4,25.975 L27.475,25.975 Z M7.5375,11.2 C7.1,10.3375 7.0375,9.35 7.375,8.4375 L8.95,4.2 C9.2875,3.2875 9.975,2.5875 10.875,2.225 C11.775,1.8625 12.7625,1.8875 13.6375,2.3 L25.6875,8.025 C25.4875,8.475 25.375,8.9875 25.375,9.5125 L25.375,10.3 C24.0625,9.55 21.9875,8.425 19.7375,7.525 C14.4,5.3625 10.85,5.4875 9.1625,7.875 C8.85,8.325 8.95,8.9375 9.4,9.25 C9.85,9.5625 10.4625,9.4625 10.775,9.0125 C12.9875,5.9 21.925,10.4625 25.3875,12.6 L25.3875,17.275 L9.675,12.9375 C8.7375,12.675 7.975,12.0625 7.5375,11.2 Z M25.8125,19.425 C26.3,20.3375 27.1625,21.0375 28.1875,21.3 C23.575,27.7375 20.4,35.125 18.9125,42.8875 C17.8625,41.3625 16.8875,39.75 15.9875,38.1 C15.8625,37.8625 15.625,37.675 15.3625,37.6125 C15.1,37.55 14.8125,37.5875 14.5875,37.7375 C12.95,38.8125 11.3375,39.9875 9.7875,41.25 C11.3875,32.8625 14.6875,24.7625 19.425,17.6625 L25.8125,19.425 Z M6.475,27.95 L11.725,27.95 C9.65,32.9625 8.175,38.25 7.3875,43.6125 C7.325,44.025 7.525,44.425 7.9,44.625 C8.2625,44.825 8.7125,44.775 9.025,44.4875 C10.8625,42.85 12.8,41.3375 14.7875,39.975 C15.975,42.075 17.3,44.0875 18.7125,45.975 C18.9,46.225 19.2,46.3625 19.5,46.3625 C19.5875,46.3625 19.6625,46.35 19.75,46.3375 C20.1375,46.2375 20.425,45.925 20.475,45.525 C21.35,39.5875 23.2375,33.8375 26.025,28.5375 L26.025,61.85 L6.475,61.85 L6.475,27.95 Z M28,61.8625 L28,27.95 L35.875,27.95 L35.875,61.8625 L28,61.8625 Z M49.2875,37.75 C49.0625,37.6 48.775,37.55 48.5125,37.625 C48.25,37.6875 48.025,37.875 47.8875,38.1125 C46.9875,39.775 46.0125,41.375 44.9625,42.9 C43.475,35.125 40.3,27.7375 35.6875,21.3125 C36.7125,21.05 37.575,20.35 38.0625,19.4375 L44.45,17.675 C49.1875,24.775 52.4875,32.875 54.0875,41.2625 C52.5375,40 50.925,38.825 49.2875,37.75 Z M61.9,25.975 L51.3,25.975 C49.9125,22.9 48.2875,19.9375 46.45,17.125 L54.725,14.85 C54.8375,14.825 54.95,14.7875 55.0625,14.75 L61.9125,14.75 L61.9125,25.975 L61.9,25.975 Z" id="Shape" fill="#53555B" fill-rule="nonzero"></path>
                        </g>
                        <circle id="Oval" fill-opacity="0.8" fill="#BBBBBB" cx="32" cy="35" r="26"></circle>
                        <g id="lock" stroke-width="1" transform="translate(16.000000, 12.000000)">
                            <path d="M26.3936,28.4074667 L5.67466667,28.4074667 C4.59946667,28.4074667 3.72906667,27.5370667 3.72906667,26.4618667 L3.72906667,12.9536 C3.72906667,6.1696 9.25013333,0.648533333 16.0341333,0.648533333 L16.0341333,0.648533333 C22.8181333,0.648533333 28.3392,6.1696 28.3392,12.9536 L28.3392,26.4618667 C28.3392,27.5370667 27.4688,28.4074667 26.3936,28.4074667 Z M7.62026667,24.5162667 L24.448,24.5162667 L24.448,12.9536 C24.448,8.31146667 20.6762667,4.53973333 16.0341333,4.53973333 C11.392,4.53973333 7.62026667,8.31146667 7.62026667,12.9536 L7.62026667,24.5162667 Z" id="Shape" fill="#CCCCCC" fill-rule="nonzero"></path>
                            <path d="M5.30773333,26.4618667 L5.30773333,12.9536 C5.30773333,6.43413333 10.4021333,1.08373333 16.8192,0.674133333 C16.5546667,0.657066667 16.2986667,0.648533333 16.0341333,0.648533333 L16.0341333,0.648533333 C9.25013333,0.648533333 3.72906667,6.1696 3.72906667,12.9536 L3.72906667,26.4618667 C3.72906667,27.5370667 4.59946667,28.4074667 5.67466667,28.4074667 L7.25333333,28.4074667 C6.17813333,28.4074667 5.30773333,27.5370667 5.30773333,26.4618667 Z" id="Path" fill="#999999" fill-rule="nonzero"></path>
                            <path d="M17.6128,4.53973333 C17.3482667,4.53973333 17.0837333,4.5568 16.8277333,4.57386667 C21.1029333,4.97493333 24.4565333,8.576 24.4565333,12.9536 L24.4565333,24.5248 L26.0266667,24.5248 L26.0266667,12.9536 C26.0266667,8.31146667 22.2549333,4.53973333 17.6128,4.53973333 Z" id="Path" fill="#999999" fill-rule="nonzero"></path>
                            <path d="M26.2144,18.5856 L5.85386667,18.5856 C3.0208,18.5856 0.7168,20.8810667 0.7168,23.7226667 L0.7168,37.8282667 C0.7168,40.6613333 3.01226667,42.9653333 5.85386667,42.9653333 L26.2144,42.9653333 C29.0474667,42.9653333 31.3514667,40.6698667 31.3514667,37.8282667 L31.3514667,23.7141333 C31.3514667,20.8810667 29.0474667,18.5856 26.2144,18.5856 Z" id="Path" fill="#FF9711" fill-rule="nonzero"></path>
                            <path d="M5.85386667,40.7978667 C4.21546667,40.7978667 2.87573333,39.4666667 2.87573333,37.8197333 L2.87573333,23.7141333 C2.87573333,22.0757333 4.20693333,20.736 5.85386667,20.736 L26.2144,20.736 C27.8528,20.736 29.1925333,22.0672 29.1925333,23.7141333 L29.1925333,37.8197333 C29.1925333,39.4581333 27.8613333,40.7978667 26.2144,40.7978667 L5.85386667,40.7978667 L5.85386667,40.7978667 Z" id="Path" fill="#FFDD50" fill-rule="nonzero"></path>
                            <path d="M19.328,29.0048 C19.328,27.1530667 17.8005333,25.6597333 15.9402667,25.7109333 C14.2336,25.7621333 12.8341333,27.136 12.7488,28.8426667 C12.6805333,30.2933333 13.5509333,31.5477333 14.7968,32.0512 L14.7968,35.3962667 C14.7968,36.0789333 15.3514667,36.6336 16.0341333,36.6336 C16.7168,36.6336 17.2714667,36.0789333 17.2714667,35.3962667 L17.2714667,32.0512 C18.4746667,31.5648 19.328,30.3872 19.328,29.0048 Z" id="Path" fill="#D67205" fill-rule="nonzero"></path>
                            <path d="M16.0341333,37.2821333 C17.0752,37.2821333 17.92,36.4373333 17.92,35.3962667 L17.92,32.4608 C19.1829333,31.7781333 19.9765333,30.464 19.9765333,29.0048 C19.9765333,27.9296 19.5498667,26.9312 18.7818667,26.1802667 C18.0138667,25.4293333 16.9984,25.0368 15.9232,25.0709333 C13.8837333,25.1306667 12.2026667,26.7776 12.1088,28.8170667 C12.0405333,30.336 12.8426667,31.7525333 14.1568,32.4693333 L14.1568,35.4048 C14.1482667,36.4373333 14.9930667,37.2821333 16.0341333,37.2821333 Z M13.3973333,28.8768 C13.4656,27.5114667 14.592,26.4021333 15.9573333,26.368 C15.9829333,26.368 16.0085333,26.368 16.0341333,26.368 C16.7253333,26.368 17.3738667,26.6325333 17.8773333,27.1189333 C18.3978667,27.6224 18.6794667,28.2965333 18.6794667,29.0133333 C18.6794667,30.0970667 18.0309333,31.0528 17.0325333,31.4624 C16.7850667,31.5648 16.6314667,31.7952 16.6314667,32.0597333 L16.6314667,35.4048 C16.6314667,35.7290667 16.3669333,35.9936 16.0426667,35.9936 C15.7184,35.9936 15.4538667,35.7290667 15.4538667,35.4048 L15.4538667,32.0597333 C15.4538667,31.7952 15.2917333,31.5562667 15.0528,31.4624 C14.0032,31.0357333 13.3376,29.9946667 13.3973333,28.8768 Z" id="Shape" fill="#333333" fill-rule="nonzero"></path>
                            <path d="M31.3514667,31.0528 C31.7098667,31.0528 32,30.7626667 32,30.4042667 L32,23.7226667 C32,21.5381333 30.7797333,19.6352 28.9877333,18.6453333 L28.9877333,12.9536 C28.9877333,9.4976 27.6394667,6.2464 25.1904,3.79733333 C22.7413333,1.34826667 19.4901333,0 16.0341333,0 C12.3904,0 8.89173333,1.55306667 6.43413333,4.26666667 C6.1952,4.5312 6.21226667,4.9408 6.4768,5.17973333 C6.74133333,5.41866667 7.15093333,5.4016 7.38986667,5.13706667 C9.6,2.69653333 12.7488,1.29706667 16.0256,1.29706667 C19.1317333,1.29706667 22.0586667,2.5088 24.2602667,4.71893333 C26.4618667,6.92053333 27.6821333,9.84746667 27.6821333,12.9536 L27.6821333,18.1248 C27.2128,17.9968 26.7178667,17.9370667 26.2058667,17.9370667 L25.088,17.9370667 L25.088,12.9536 C25.088,7.95306667 21.0261333,3.8912 16.0256,3.8912 C11.0250667,3.8912 6.9632,7.95306667 6.9632,12.9536 L6.9632,17.9370667 L5.84533333,17.9370667 C5.33333333,17.9370667 4.8384,18.0053333 4.36906667,18.1248 L4.36906667,12.9536 C4.36906667,10.9056 4.9152,8.8832 5.9392,7.1168 C6.1184,6.8096 6.016,6.40853333 5.7088,6.22933333 C5.4016,6.05013333 5.00053333,6.15253333 4.82133333,6.45973333 C3.67786667,8.4224 3.08053333,10.6666667 3.08053333,12.9450667 L3.08053333,18.6368 C1.28853333,19.6181333 0.0682666667,21.5296 0.0682666667,23.7141333 L0.0682666667,37.8197333 C0.0682666667,41.0112 2.6624,43.6053333 5.85386667,43.6053333 L26.2144,43.6053333 C29.4058667,43.6053333 32,41.0112 32,37.8197333 L32,32.9898667 C32,32.6314667 31.7098667,32.3413333 31.3514667,32.3413333 C30.9930667,32.3413333 30.7029333,32.6314667 30.7029333,32.9898667 L30.7029333,37.8197333 C30.7029333,40.2944 28.6890667,42.3082667 26.2144,42.3082667 L5.85386667,42.3082667 C3.3792,42.3082667 1.36533333,40.2944 1.36533333,37.8197333 L1.36533333,23.7141333 C1.36533333,21.2394667 3.3792,19.2256 5.85386667,19.2256 L26.2144,19.2256 C28.6890667,19.2256 30.7029333,21.2394667 30.7029333,23.7141333 L30.7029333,30.3957333 C30.7029333,30.7626667 30.9930667,31.0528 31.3514667,31.0528 Z M8.2688,12.9536 C8.2688,8.66986667 11.7504,5.18826667 16.0341333,5.18826667 C20.3178667,5.18826667 23.7994667,8.66986667 23.7994667,12.9536 L23.7994667,17.9370667 L8.2688,17.9370667 L8.2688,12.9536 Z" id="Shape" fill="#333333" fill-rule="nonzero"></path>
                        </g>
                    </g>
                </g>
            </g>
        </g>
    </g>
</svg>