<svg xmlns="http://www.w3.org/2000/svg" viewBox="0 0 391.49 80.08"><title>SW_logo</title><path d="M91.57,61.58C82.81,47.73,74.93,27,74.25,5.27a5.18,5.18,0,0,0-5.2-5H46a5.22,5.22,0,0,0-5.21,5.46,109.33,109.33,0,0,0,33,73.12,5.24,5.24,0,0,0,7.31,0A112.21,112.21,0,0,0,91.25,67.5,5.15,5.15,0,0,0,91.57,61.58Z" transform="translate(-0.63 -0.29)" fill="#ed1941"/><path d="M51.53,61.58C42.77,47.73,34.88,27,34.21,5.27a5.18,5.18,0,0,0-5.2-5H.66c0,.43-.1,2.49,0,5.46a109.33,109.33,0,0,0,33,73.12,5.24,5.24,0,0,0,7.31,0A112.21,112.21,0,0,0,51.21,67.5,5.15,5.15,0,0,0,51.53,61.58Z" transform="translate(-0.63 -0.29)" fill="#bb1f2e"/><path d="M114.13.29H86a5.22,5.22,0,0,0-5.21,5.47A109.06,109.06,0,0,0,92.74,50.38a5.22,5.22,0,0,0,9.28,0A108.82,108.82,0,0,0,114.13.3Z" transform="translate(-0.63 -0.29)" fill="#ffcb05"/><polygon points="322.49 21.95 312.52 46.04 303.13 19.95 293.33 46.04 283.95 21.95 278.04 21.95 293.36 59.99 303.02 34.74 312.28 59.99 328.39 21.95 322.49 21.95" fill="#ed1941"/><polygon points="375.11 38.27 391.4 21.95 384.14 21.95 370.11 36.33 370.11 21.95 364.68 21.95 364.68 57.99 370.11 57.99 370.11 43.08 371.23 41.95 384.21 57.99 391.49 57.99 375.11 38.27" fill="#ed1941"/><path d="M344.29,21.44a18.82,18.82,0,1,0,18.82,18.82A18.81,18.81,0,0,0,344.29,21.44Zm0,32.53A13.72,13.72,0,1,1,357.6,40.26,13.52,13.52,0,0,1,344.29,54Z" transform="translate(-0.63 -0.29)" fill="#ed1941"/><polygon points="230.4 52.88 218.06 52.88 218.06 21.95 212.62 21.95 212.62 52.88 200.28 52.88 200.28 21.95 194.84 21.95 194.84 57.99 235.84 57.99 235.84 21.95 230.4 21.95 230.4 52.88" fill="#ffcb05"/><polygon points="246.72 47.13 246.72 21.95 241.28 21.95 241.28 59.99 267.56 32.89 267.56 57.99 273 57.99 273 19.95 246.72 47.13" fill="#ffcb05"/><polygon points="174.34 42.8 162.31 21.95 156.03 21.95 171.2 48.23 165.57 57.99 171.85 57.99 192.66 21.95 186.38 21.95 174.34 42.8" fill="#ffcb05"/><path d="M143.37,54A13.5,13.5,0,0,1,130.1,40.26a13.5,13.5,0,0,1,13.27-13.72,13,13,0,0,1,9.52,4.17L156.64,27a18.83,18.83,0,1,0,0,26.61l-3.75-3.76A13,13,0,0,1,143.37,54Z" transform="translate(-0.63 -0.29)" fill="#ffcb05"/></svg>