<svg xmlns="http://www.w3.org/2000/svg" viewBox="0 0 872.68 1421.13"><defs><style>.cls-1{fill:#ab5c4a;}.cls-2{fill:#5aad3e;}.cls-2,.cls-4,.cls-5,.cls-6,.cls-7,.cls-8{fill-rule:evenodd;}.cls-3{fill:#9c5140;}.cls-4{fill:#72c257;}.cls-5{fill:#3d8a24;}.cls-6{fill:#d6eafc;}.cls-7{fill:#ebf6ff;}.cls-8{fill:#bedefa;}</style></defs><title>Asset 1</title><g id="Layer_2" data-name="Layer 2"><g id="Layer_1-2" data-name="Layer 1"><rect class="cls-1" x="372.5" y="1277.2" width="127.68" height="143.93"/><path class="cls-2" d="M436,1277.2H83c-74.41,0-103.41-14.94-67.81-117.44L401.64,47C411,20,423.53,6.41,436,6.31h.7C449.15,6.41,461.64,20,471.05,47L857.54,1159.76c35.6,102.5,6.6,117.44-67.8,117.44H436Z"/><rect class="cls-3" x="372.5" y="1277.2" width="127.68" height="36.54"/><path class="cls-4" d="M182.71,1277.2H83c-74.41,0-103.41-14.94-67.81-117.44L401.64,47C411,20,423.53,6.41,436,6.31,423.54,6.41,412.12,20,404.83,47L105.69,1159.76C78.14,1262.26,108.31,1277.2,182.71,1277.2Z"/><path class="cls-5" d="M436.69,6.31C449.15,6.41,461.64,20,471.05,47L857.54,1159.76c35.6,102.5,6.6,117.44-67.8,117.44H631.06c74.4,0,105.26-14.94,82.46-117.44L466,47C459.93,20,449.14,6.41,436.69,6.31Z"/><path class="cls-6" d="M372.69,81.42c32-104.81,94.21-112.24,128.82,0l277.24,845L638.83,635c-43.53-90.65-54.91-116.57-58.1-31.61-2.16,57.36-9.6,56-42.91-34.29l-48.5-126.15c-14.25-35.93-36.42-88.53-59.65-39.15L371.29,529.32c-26.45,56.86-34.45,57-45,23.69a454.42,454.42,0,0,0-23.23-59.39C284,454,287,444.67,262.5,503.68L127.05,830.08Z"/><path class="cls-7" d="M372.69,81.42c12.85-42.11,30.59-68.52,49.45-77.73.13-.06.49-.26.4-.2C402.05,17.42,387,44.14,378.28,82.78l-86.84,386c.92-4.08-7.42-8-9.88-5.28l-.31.35c-4.09,4.75-9.44,17.35-18.75,39.79q-67.69,163.19-135.45,326.4Z"/><path class="cls-8" d="M455.81,5.52c-.1-.08.21.13.31.19C473,16.15,489.06,41,501.51,81.42l277.24,845L638.83,635c-25.65-48.39-42.47-108.16-56-62.81-.14.47-80.66-442.75-88.83-481.59C486.44,54.61,478.11,26.24,455.81,5.52Z"/></g></g></svg>