<?xml version="1.0" encoding="UTF-8"?>
<svg width="32px" height="32px" viewBox="0 0 32 32" version="1.1" xmlns="http://www.w3.org/2000/svg" xmlns:xlink="http://www.w3.org/1999/xlink">
    <!-- Generator: Sketch 60.1 (88133) - https://sketch.com -->
    <title>Overrides/Tab Bar/Icons/Active/1</title>
    <desc>Created with Sketch.</desc>
    <defs>
        <rect id="path-1" x="15" y="73" width="384" height="823" rx="13"></rect>
        <filter x="-2.7%" y="-1.3%" width="105.5%" height="102.6%" filterUnits="objectBoundingBox" id="filter-2">
            <feMorphology radius="2" operator="erode" in="SourceAlpha" result="shadowSpreadOuter1"></feMorphology>
            <feOffset dx="0" dy="0" in="shadowSpreadOuter1" result="shadowOffsetOuter1"></feOffset>
            <feGaussianBlur stdDeviation="5.5" in="shadowOffsetOuter1" result="shadowBlurOuter1"></feGaussianBlur>
            <feColorMatrix values="0 0 0 0 0   0 0 0 0 0   0 0 0 0 0  0 0 0 0.5 0" type="matrix" in="shadowBlurOuter1"></feColorMatrix>
        </filter>
    </defs>
    <g id="Page-1" stroke="none" stroke-width="1" fill="none" fill-rule="evenodd">
        <g id="Gift-open" transform="translate(-330.000000, -850.000000)">
            <g id="BG" transform="translate(0.000000, -0.000000)">
                <g id="Calendar-Copy" transform="translate(1.000000, 652.000000)">
                    <g id="day-copy-7" transform="translate(309.000000, 103.000000)">
                        <rect id="Rectangle" x="0" y="0" width="103" height="103"></rect>
                        <text id="8-декабря" font-family="Helvetica" font-size="14" font-weight="normal" fill="#939393">
                            <tspan x="18" y="101">8 декабря</tspan>
                        </text>
                    </g>
                    <g id="day-copy-11" transform="translate(309.000000, 206.000000)">
                        <rect id="Rectangle" x="0" y="0" width="103" height="103"></rect>
                        <g id="Gift/closed/unable" transform="translate(18.000000, 16.000000)">
                            <g id="gift-inactive">
                                <polygon id="Path" fill="#D8D8D8" fill-rule="nonzero" points="62.8875 13.75 0.9875 13.75 0.9875 26.9625 5.4875 26.9625 5.4875 62.85 58.3875 62.85 58.3875 26.9625 62.8875 26.9625"></polygon>
                                <polygon id="Path" fill="#B5B5B5" fill-rule="nonzero" points="5.4875 25.975 58.3875 25.975 58.3875 31.3 5.4875 31.3"></polygon>
                                <path d="M53.8625,44.475 C52.625,37.5375 50.275,30.875 46.925,24.725 C44.9625,21.1375 42.6625,17.725 40.05,14.55 C39.75,14.1875 39.4375,13.8125 39.125,13.45 C37.8,14.5875 36.475,15.725 35.15,16.8625 C34.0125,17.8375 32.875,18.825 31.725,19.8125 C30.825,19.0375 29.925,18.2625 29.0125,17.475 C27.6875,16.3375 26.3625,15.2 25.0375,14.0625 C24.725,14.425 24.4125,14.7875 24.1125,15.1625 C21.4875,18.3375 19.1875,21.75 17.2375,25.3375 C13.95,31.4125 11.6125,38 10.375,44.85 C10.2375,45.5875 11.1,46.1 11.675,45.625 C13.3375,44.25 15.0375,43 16.775,41.8625 C17.775,43.7 18.85,45.45 20.0125,47.1125 C20.425,47.7 21.325,47.4875 21.4625,46.7875 C22.65,40.275 25.0375,34.05 28.475,28.4375 C29.6375,26.525 30.9375,24.6875 32.3375,22.925 C33.5625,24.5 34.6875,26.1375 35.725,27.825 C39.2,33.5 41.6,39.7875 42.775,46.3875 C42.8875,47.0125 43.7,47.2 44.0625,46.675 C45.2625,44.975 46.3875,43.1625 47.4125,41.25 C49.2125,42.425 50.975,43.725 52.6875,45.1625 C53.2,45.575 53.975,45.1375 53.8625,44.475 Z" id="Path" fill="#B5B5B5" fill-rule="nonzero"></path>
                                <path d="M31.9375,18.125 C31.5375,18.5875 31.1375,19.0625 30.75,19.55 C29.3125,21.3375 28,23.2 26.8125,25.15 C23.05,31.3125 20.5375,38.1875 19.4875,45.3875 C17.9,43.2875 16.4375,41.0125 15.125,38.575 C12.8125,40.0875 10.5375,41.8125 8.3625,43.7625 C9.4875,36.125 11.95,28.7875 15.6125,22.0625 C17.575,18.475 19.875,15.0625 22.4875,11.8875 C22.7875,11.5125 23.1,11.15 23.4125,10.7875 C24.7375,11.925 26.0625,13.0625 27.3875,14.2 C28.7375,15.3625 30.0875,16.525 31.45,17.7 C31.6125,17.85 31.775,17.9875 31.9375,18.125 Z" id="Path" fill="#D8D8D8" fill-rule="nonzero"></path>
                                <path d="M55.5125,43.7625 C53.3375,41.8125 51.0625,40.0875 48.75,38.575 C47.4375,41.0125 45.975,43.2875 44.3875,45.3875 C43.3375,38.1875 40.825,31.3 37.0625,25.15 C35.875,23.2125 34.5625,21.3375 33.125,19.55 C32.7375,19.075 32.35,18.6 31.9375,18.125 C32.1,17.9875 32.2625,17.8375 32.4375,17.7 C33.7875,16.5375 35.15,15.3625 36.5,14.2 C37.825,13.0625 39.15,11.925 40.475,10.7875 C40.7875,11.15 41.1,11.5125 41.4,11.8875 C44.025,15.0625 46.325,18.475 48.275,22.0625 C51.925,28.775 54.3875,36.125 55.5125,43.7625 Z" id="Path" fill="#D8D8D8" fill-rule="nonzero"></path>
                                <path d="M48.2625,22.0625 L37.05,25.15 C35.8625,23.2125 34.55,21.3375 33.1125,19.55 L32.425,17.7 L31.925,16.3625 L36.475,14.2 L41.3625,11.875 C44,15.0625 46.3,18.475 48.2625,22.0625 Z" id="Path" fill="#B5B5B5" fill-rule="nonzero"></path>
                                <path d="M31.9375,16.375 L31.4375,17.7125 L30.75,19.5625 C29.3125,21.35 28,23.2125 26.8125,25.1625 L15.6125,22.075 C17.575,18.4875 19.875,15.075 22.4875,11.9 L27.375,14.225 L31.9375,16.375 Z" id="Path" fill="#B5B5B5" fill-rule="nonzero"></path>
                                <g id="Group" transform="translate(6.125000, 0.875000)" fill="#D8D8D8" fill-rule="nonzero">
                                    <path d="M43.7,0.5375 L25.8125,9.025 L29.25,18.2625 L48.3375,13.0125 C50.8375,12.325 52.2,9.65 51.3,7.225 L49.725,2.9875 C48.825,0.5625 46.0375,-0.575 43.7,0.5375 Z" id="Path"></path>
                                    <path d="M7.925,0.5375 L25.8125,9.025 L22.375,18.275 L3.2875,13.025 C0.7875,12.3375 -0.575,9.6625 0.325,7.2375 L1.9,3 C2.8,0.5625 5.5875,-0.575 7.925,0.5375 Z" id="Path"></path>
                                    <path d="M28.6125,5.85 L23,5.85 C21.4625,5.85 20.225,7.1 20.225,8.625 L20.225,16.775 C20.225,18.3125 21.475,19.55 23,19.55 L28.6125,19.55 C30.15,19.55 31.3875929,18.3 31.3875929,16.775 L31.3875929,8.6375 C31.4,7.1 30.15,5.85 28.6125,5.85 Z" id="Path"></path>
                                    <polygon id="Path" points="20.8875 26.0875 30.75 26.0875 30.75 61.975 20.8875 61.975"></polygon>
                                </g>
                                <polygon id="Path" fill="#B5B5B5" fill-rule="nonzero" points="27.0125 26.9625 36.875 26.9625 36.875 31.3 27.0125 31.3"></polygon>
                                <path d="M62.8875,12.7625 L57.6875,12.7625 C57.8375,12.55 57.975,12.325 58.1,12.1 C58.7875,10.75 58.875,9.175 58.35,7.7625 L56.775,3.525 C56.25,2.1125 55.15,0.975 53.75,0.4 C52.35,-0.1625 50.7625,-0.125 49.4,0.525 L36.925,6.45 C36.3125,6.0125 35.55,5.75 34.7375,5.75 L29.125,5.75 C28.3125,5.75 27.5625,6.0125 26.9375,6.45 L14.475,0.525 C13.1125,-0.125 11.525,-0.175 10.125,0.4 C8.725,0.9625 7.625,2.1 7.1,3.525 L5.525,7.75 C5,9.1625 5.0875,10.75 5.775,12.0875 C5.9,12.325 6.0375,12.55 6.1875,12.75 L0.9875,12.75 C0.4375,12.75 0,13.1875 0,13.7375 L0,20.8375 C0,21.3875 0.4375,21.825 0.9875,21.825 C1.5375,21.825 1.975,21.3875 1.975,20.8375 L1.975,14.725 L8.825,14.725 C8.9375,14.7625 9.05,14.8 9.1625,14.825 L17.4375,17.1 C15.6,19.9125 13.975,22.8875 12.5875,25.95 L1.975,25.95 L1.975,24.7625 C1.975,24.2125 1.5375,23.775 0.9875,23.775 C0.4375,23.775 0,24.25 0,24.7875 L0,26.9625 C0,27.5125 0.4375,27.95 0.9875,27.95 L4.5,27.95 L4.5,62.85 C4.5,63.4 4.9375,63.8375 5.4875,63.8375 L58.3875,63.8375 C58.9375,63.8375 59.375,63.4 59.375,62.85 L59.375,57.125 C59.375,56.575 58.9375,56.1375 58.3875,56.1375 C57.8375,56.1375 57.4,56.575 57.4,57.125 L57.4,61.8625 L37.85,61.8625 L37.85,28.55 C40.6375,33.8375 42.5375,39.5875 43.4,45.5375 C43.4625,45.925 43.75,46.25 44.1375,46.35 C44.2125,46.375 44.3,46.375 44.3875,46.375 C44.6875,46.375 44.9875,46.2375 45.175,45.9875 C46.5875,44.1125 47.9125,42.1 49.1,39.9875 C51.0875,41.35 53.025,42.8625 54.8625,44.5 C55.175,44.775 55.625,44.825 55.9875,44.6375 C56.35,44.4375 56.55,44.0375 56.5,43.625 C55.7125,38.25 54.25,32.975 52.1625,27.95 L57.4125,27.95 L57.4125,53.1875 C57.4125,53.7375 57.85,54.175 58.4,54.175 C58.95,54.175 59.3875,53.7375 59.3875,53.1875 L59.3875,27.95 L62.9,27.95 C63.45,27.95 63.8875,27.5125 63.8875,26.9625 L63.8875,13.75 C63.875,13.2 63.4375,12.7625 62.8875,12.7625 Z M50.25,2.3 C51.125,1.8875 52.1125,1.85 53.0125,2.225 C53.9125,2.5875 54.6,3.3 54.9375,4.2 L56.5,8.4375 C56.8375,9.35 56.775,10.325 56.3375,11.2 C55.9,12.0625 55.1375,12.6875 54.2,12.9375 L38.5125,17.2625 L38.5125,12.525 C42.0375,10.3625 50.8375,5.9125 53.025,9 C53.3375,9.45 53.95,9.55 54.4,9.2375 C54.85,8.925 54.95,8.3125 54.6375,7.8625 C52.95,5.475 49.3875,5.3625 44.0625,7.5125 C41.8625,8.4 39.8375,9.4875 38.525,10.2375 L38.525,9.5125 C38.525,8.9875 38.4125,8.4875 38.2125,8.025 L50.25,2.3 Z M29.1375,7.7125 L34.75,7.7125 C35.7375,7.7125 36.55,8.5125 36.55,9.5125 L36.55,17.6625 C36.55,18.65 35.75,19.4625 34.75,19.4625 L29.1375,19.4625 C28.15,19.4625 27.3375,18.6625 27.3375,17.6625 L27.3375,9.5125 C27.3375,8.525 28.15,7.7125 29.1375,7.7125 Z M27.475,25.975 C28.4125,24.4125 29.45,22.8875 30.55,21.425 L33.325,21.425 C34.425,22.8875 35.45,24.4125 36.4,25.975 L27.475,25.975 Z M7.5375,11.2 C7.1,10.3375 7.0375,9.35 7.375,8.4375 L8.95,4.2 C9.2875,3.2875 9.975,2.5875 10.875,2.225 C11.775,1.8625 12.7625,1.8875 13.6375,2.3 L25.6875,8.025 C25.4875,8.475 25.375,8.9875 25.375,9.5125 L25.375,10.3 C24.0625,9.55 21.9875,8.425 19.7375,7.525 C14.4,5.3625 10.85,5.4875 9.1625,7.875 C8.85,8.325 8.95,8.9375 9.4,9.25 C9.85,9.5625 10.4625,9.4625 10.775,9.0125 C12.9875,5.9 21.925,10.4625 25.3875,12.6 L25.3875,17.275 L9.675,12.9375 C8.7375,12.675 7.975,12.0625 7.5375,11.2 Z M25.8125,19.425 C26.3,20.3375 27.1625,21.0375 28.1875,21.3 C23.575,27.7375 20.4,35.125 18.9125,42.8875 C17.8625,41.3625 16.8875,39.75 15.9875,38.1 C15.8625,37.8625 15.625,37.675 15.3625,37.6125 C15.1,37.55 14.8125,37.5875 14.5875,37.7375 C12.95,38.8125 11.3375,39.9875 9.7875,41.25 C11.3875,32.8625 14.6875,24.7625 19.425,17.6625 L25.8125,19.425 Z M6.475,27.95 L11.725,27.95 C9.65,32.9625 8.175,38.25 7.3875,43.6125 C7.325,44.025 7.525,44.425 7.9,44.625 C8.2625,44.825 8.7125,44.775 9.025,44.4875 C10.8625,42.85 12.8,41.3375 14.7875,39.975 C15.975,42.075 17.3,44.0875 18.7125,45.975 C18.9,46.225 19.2,46.3625 19.5,46.3625 C19.5875,46.3625 19.6625,46.35 19.75,46.3375 C20.1375,46.2375 20.425,45.925 20.475,45.525 C21.35,39.5875 23.2375,33.8375 26.025,28.5375 L26.025,61.85 L6.475,61.85 L6.475,27.95 Z M28,61.8625 L28,27.95 L35.875,27.95 L35.875,61.8625 L28,61.8625 Z M49.2875,37.75 C49.0625,37.6 48.775,37.55 48.5125,37.625 C48.25,37.6875 48.025,37.875 47.8875,38.1125 C46.9875,39.775 46.0125,41.375 44.9625,42.9 C43.475,35.125 40.3,27.7375 35.6875,21.3125 C36.7125,21.05 37.575,20.35 38.0625,19.4375 L44.45,17.675 C49.1875,24.775 52.4875,32.875 54.0875,41.2625 C52.5375,40 50.925,38.825 49.2875,37.75 Z M61.9,25.975 L51.3,25.975 C49.9125,22.9 48.2875,19.9375 46.45,17.125 L54.725,14.85 C54.8375,14.825 54.95,14.7875 55.0625,14.75 L61.9125,14.75 L61.9125,25.975 L61.9,25.975 Z" id="Shape" fill="#53555B" fill-rule="nonzero"></path>
                            </g>
                        </g>
                    </g>
                </g>
            </g>
            <rect id="Rectangle" fill-opacity="0.4" fill="#A1A1A1" x="0" y="0" width="414" height="896"></rect>
            <g id="Rectangle">
                <use fill="black" fill-opacity="1" filter="url(#filter-2)" xlink:href="#path-1"></use>
                <use fill="#FFFFFF" fill-rule="evenodd" xlink:href="#path-1"></use>
            </g>
            <g id="Tab-Bar-@Panels.Footers-Copy" transform="translate(1.000000, 836.000000)">
                <path d="M-0.25,-0.25 L414.25,-0.25 L414.25,60.25 L-0.25,60.25 L-0.25,-0.25 Z" id="Body" stroke-opacity="0.15" stroke="#000000" stroke-width="0.5" fill-opacity="0.92" fill="#FFFFFF"></path>
                <g id="user-bar" transform="translate(276.000000, 0.000000)">
                    <rect id="Body" x="0" y="0" width="138" height="60"></rect>
                    <g id="Tab-Bar/Icons/user/normal" transform="translate(45.000000, 13.000000)" fill="#53555B">
                        <g id="user" transform="translate(8.000000, 1.000000)">
                            <path d="M18.4015595,9.05730994 C17.565692,9.05730994 16.88577,9.73723197 16.88577,10.5730994 C16.88577,11.4089669 17.565692,12.0888889 18.4015595,12.0888889 C19.2374269,12.0888889 19.9173489,11.4089669 19.9173489,10.5730994 C19.9173489,9.73723197 19.2374269,9.05730994 18.4015595,9.05730994 Z M18.4015595,11.1407407 C18.0896686,11.1407407 17.8339181,10.8849903 17.8339181,10.5730994 C17.8339181,10.2612086 18.0896686,10.0054581 18.4015595,10.0054581 C18.7134503,10.0054581 18.9692008,10.2612086 18.9692008,10.5730994 C18.9692008,10.8849903 18.7134503,11.1407407 18.4015595,11.1407407 Z" id="Shape" fill-rule="nonzero"></path>
                            <path d="M18.894347,13.2304094 C18.077193,14.0475634 16.9918129,14.4966862 15.8378168,14.4966862 C14.6838207,14.4966862 13.5984405,14.0475634 12.7812865,13.2304094 C12.594152,13.0432749 12.2947368,13.0432749 12.1076023,13.2304094 C11.9204678,13.4175439 11.9204678,13.7169591 12.1076023,13.9040936 C13.105653,14.9021442 14.4280702,15.4510721 15.8378168,15.4510721 C17.2475634,15.4510721 18.5699805,14.9021442 19.5680312,13.9040936 C19.7551657,13.7169591 19.7551657,13.4175439 19.5680312,13.2304094 C19.3808967,13.0432749 19.0814815,13.0432749 18.894347,13.2304094 Z" id="Path" fill-rule="nonzero"></path>
                            <path d="M16.2557505,23.6350877 C17.1727096,23.6350877 17.9212476,22.8865497 17.9212476,21.9695906 C17.9212476,21.0526316 17.1727096,20.3040936 16.2557505,20.3040936 C15.3387914,20.3040936 14.5902534,21.0526316 14.5902534,21.9695906 C14.5964912,22.8865497 15.3387914,23.6350877 16.2557505,23.6350877 Z M16.2557505,21.2584795 C16.6487329,21.2584795 16.9668616,21.5766082 16.9668616,21.9695906 C16.9668616,22.3625731 16.6487329,22.6807018 16.2557505,22.6807018 C15.862768,22.6807018 15.5446394,22.3625731 15.5446394,21.9695906 C15.5446394,21.5766082 15.862768,21.2584795 16.2557505,21.2584795 Z" id="Shape" fill-rule="nonzero"></path>
                            <path d="M16.2557505,27.7645224 C17.1727096,27.7645224 17.9212476,27.0159844 17.9212476,26.0990253 C17.9212476,25.1820663 17.1727096,24.4335283 16.2557505,24.4335283 C15.3387914,24.4335283 14.5902534,25.1820663 14.5902534,26.0990253 C14.5964912,27.0222222 15.3387914,27.7645224 16.2557505,27.7645224 Z M16.2557505,25.394152 C16.6487329,25.394152 16.9668616,25.7122807 16.9668616,26.1052632 C16.9668616,26.4982456 16.6487329,26.8163743 16.2557505,26.8163743 C15.862768,26.8163743 15.5446394,26.4982456 15.5446394,26.1052632 C15.5446394,25.7122807 15.862768,25.394152 16.2557505,25.394152 Z" id="Shape" fill-rule="nonzero"></path>
                            <path d="M30.8584795,15.014425 L29.785575,14.3220273 L31.0019493,13.311501 C31.2015595,13.1430799 31.2327485,12.8436647 31.0643275,12.6440546 C30.8959064,12.4444444 30.5964912,12.4132554 30.3968811,12.5816764 L29.4674464,13.3551657 L29.4674464,12.4693957 C29.4674464,12.2074074 29.2553606,11.9953216 28.9933723,11.9953216 C28.731384,11.9953216 28.5192982,12.2074074 28.5192982,12.4693957 L28.5192982,14.1723197 L26.4670565,16.2183236 L26.4670565,15.7005848 C26.4670565,15.4385965 26.2549708,15.2265107 25.9929825,15.2265107 C25.7309942,15.2265107 25.5189084,15.4385965 25.5189084,15.7005848 L25.5189084,17.1664717 L23.6725146,19.0128655 C23.0487329,18.2081871 22.2939571,17.497076 21.4518519,16.9231969 C22.5684211,15.625731 23.2483431,13.9352827 23.2483431,12.0951267 C23.2483431,10.9473684 22.9925926,9.84951267 22.4873294,8.82651072 C22.3688109,8.58947368 22.0881092,8.49590643 21.8510721,8.60818713 C21.6140351,8.72046784 21.5204678,9.00740741 21.6327485,9.24444444 C22.0693957,10.1364522 22.2939571,11.0908382 22.2939571,12.0951267 C22.2939571,15.6569201 19.3996101,18.5512671 15.8378168,18.5512671 C12.3321637,18.5512671 9.46900585,15.7442495 9.38791423,12.2573099 C9.61871345,12.188694 9.83079922,12.0764133 10.0116959,11.91423 C10.4109162,11.5586745 10.8288499,11.2218324 11.2530214,10.8974659 C11.402729,11.5836257 12.0077973,12.0951267 12.7376218,12.0951267 C13.5734893,12.0951267 14.2534113,11.4152047 14.2534113,10.5793372 C14.2534113,10.0553606 13.991423,9.59376218 13.5859649,9.32553606 C15.3575049,8.27758285 17.260039,7.44795322 19.2311891,6.88031189 C19.3247563,6.85536062 19.4120858,6.81793372 19.4931774,6.78050682 C20.017154,7.14230019 20.4849903,7.57270955 20.8842105,8.07173489 C20.9777778,8.19025341 21.1150097,8.25263158 21.2584795,8.25263158 C21.3645224,8.25263158 21.4643275,8.2214425 21.5516569,8.14658869 C21.7575049,7.98440546 21.788694,7.68499025 21.6265107,7.4791423 C21.2148148,6.96140351 20.7407407,6.5122807 20.2105263,6.11929825 C20.2479532,6.05068226 20.2853801,5.98206628 20.3165692,5.91345029 C20.5161793,5.43937622 20.4849903,4.90916179 20.2417154,4.46003899 L19.2623782,2.66354776 C18.894347,1.98362573 18.1083821,1.64678363 17.3598441,1.84639376 C17.3536062,1.84639376 17.3473684,1.85263158 17.3348928,1.85263158 C15.5883041,-0.0686159844 12.7251462,-0.561403509 10.417154,0.698635478 L9.58128655,1.1539961 C7.27329435,2.41403509 6.14424951,5.09005848 6.81169591,7.59766082 C6.80545809,7.60389864 6.79922027,7.61013645 6.79298246,7.61637427 C6.22534113,8.14035088 6.08187135,8.98245614 6.45614035,9.65614035 L7.43547758,11.4463938 C7.65380117,11.8393762 8.00935673,12.1263158 8.43976608,12.2510721 C8.47719298,14.0912281 9.19454191,15.7754386 10.348538,17.0479532 C9.48148148,17.6717349 8.72670565,18.4202729 8.11539961,19.2748538 L3.0502924,15.5508772 L3.0502924,13.7980507 C3.0502924,13.5360624 2.83820663,13.3239766 2.57621832,13.3239766 C2.31423002,13.3239766 2.10214425,13.5360624 2.10214425,13.7980507 L2.10214425,15.2015595 L0.580116959,14.8584795 C0.324366472,14.8023392 0.0686159844,14.9582846 0.0124756335,15.2140351 C-0.0436647173,15.4697856 0.112280702,15.7255361 0.374269006,15.7816764 L1.92748538,16.1309942 L1.47836257,17.2288499 C1.3785575,17.4721248 1.49707602,17.7465887 1.73411306,17.8463938 C1.79025341,17.871345 1.85263158,17.8838207 1.91500975,17.8838207 C2.10214425,17.8838207 2.27680312,17.77154 2.35165692,17.5906433 L2.78206628,16.5364522 L7.59766082,20.0795322 C6.99883041,21.1087719 6.5871345,22.2502924 6.4,23.4479532 C6.37504873,23.6101365 6.4374269,23.7660819 6.5497076,23.8721248 C6.61832359,23.9345029 6.6994152,23.9781676 6.79922027,23.9968811 C6.89902534,24.0093567 6.99259259,23.9968811 7.07368421,23.9594542 C7.21091618,23.897076 7.31695906,23.7660819 7.34191033,23.6038986 C7.71617934,21.2210526 9.05730994,19.1064327 11.0471735,17.7403509 C12.3384016,18.8444444 14.0163743,19.5118908 15.8440546,19.5118908 C17.7341131,19.5118908 19.4619883,18.8007797 20.7719298,17.6280702 C21.9196881,18.3766082 22.8865497,19.3933723 23.5789474,20.5785575 C24.0530214,21.3957115 24.3898635,22.2877193 24.5832359,23.217154 C24.5832359,23.217154 24.5894737,23.217154 24.5894737,23.217154 C24.7079922,23.7847953 24.7641326,24.3773879 24.7641326,24.9762183 C24.7641326,26.9723197 24.1091618,28.425731 22.7680312,29.4175439 C21.5953216,30.2846004 19.8487329,30.8023392 17.5844055,30.9582846 C17.0853801,30.9894737 16.5489279,31.0081871 15.9937622,31.0081871 C13.311501,31.0081871 11.302924,30.6214425 9.8619883,29.8292398 C8.21520468,28.9185185 7.35438596,27.4900585 7.23586745,25.462768 C7.22339181,25.2070175 6.99883041,25.0074074 6.74307992,25.019883 C6.48732943,25.0323587 6.2877193,25.2569201 6.30019493,25.5126706 C6.4374269,27.8580897 7.4791423,29.5859649 9.40662768,30.6463938 C10.9910331,31.5196881 13.1430799,31.9438596 15.9875244,31.9438596 C16.5614035,31.9438596 17.122807,31.9251462 17.6405458,31.8939571 C20.1231969,31.7255361 21.9820663,31.1641326 23.3169591,30.1723197 C24.8951267,29.005848 25.6935673,27.2592593 25.6935673,24.9762183 C25.6935673,24.2838207 25.6187135,23.5976608 25.4752437,22.9239766 C25.4752437,22.9239766 25.4814815,22.9239766 25.4814815,22.9239766 C25.2693957,21.9321637 24.9013645,20.9840156 24.3898635,20.1044834 C24.3337232,20.0109162 24.2775828,19.9111111 24.2152047,19.8175439 L26.3235867,17.7091618 L26.3235867,17.7091618 L29.0432749,14.9894737 L30.3345029,15.8253411 C30.4155945,15.8752437 30.502924,15.9001949 30.5902534,15.9001949 C30.7461988,15.9001949 30.8959064,15.8253411 30.9894737,15.6818713 C31.1454191,15.4510721 31.0830409,15.1578947 30.8584795,15.014425 Z M12.7376218,11.1407407 C12.425731,11.1407407 12.1699805,10.8849903 12.1699805,10.5730994 C12.1699805,10.2612086 12.425731,10.0054581 12.7376218,10.0054581 C13.0495127,10.0054581 13.3052632,10.2612086 13.3052632,10.5730994 C13.3052632,10.8849903 13.0495127,11.1407407 12.7376218,11.1407407 Z M10.0366472,1.98986355 L10.8725146,1.53450292 C12.6502924,0.561403509 14.8210526,0.842105263 16.2931774,2.1582846 C13.1306043,3.14385965 10.1676413,4.75945419 7.63508772,6.88654971 C7.31695906,4.94035088 8.2588694,2.96296296 10.0366472,1.98986355 Z M8.782846,11.3653021 C8.56452242,11.3278752 8.37738791,11.1906433 8.27134503,10.997271 L7.2920078,9.20701754 C7.12982456,8.91384016 7.19220273,8.54580897 7.4417154,8.32124756 C10.3111111,5.67641326 13.8292398,3.76140351 17.6031189,2.76959064 C17.6654971,2.75087719 17.7278752,2.74463938 17.7902534,2.74463938 C18.0522417,2.74463938 18.3017544,2.88810916 18.4327485,3.1251462 L19.4120858,4.91539961 C19.5181287,5.10877193 19.5306043,5.33957115 19.4432749,5.5454191 C19.3559454,5.75126706 19.1875244,5.90097466 18.9754386,5.96335283 C15.4573099,6.97387914 12.1387914,8.782846 9.38791423,11.1968811 C9.21949318,11.3465887 9.00116959,11.4089669 8.782846,11.3653021 Z" id="Shape" fill-rule="nonzero"></path>
                        </g>
                    </g>
                </g>
            </g>
        </g>
    </g>
</svg>