<?xml version="1.0" encoding="UTF-8"?>
<svg width="27px" height="32px" viewBox="0 0 27 32" version="1.1" xmlns="http://www.w3.org/2000/svg" xmlns:xlink="http://www.w3.org/1999/xlink">
    <!-- Generator: Sketch 60.1 (88133) - https://sketch.com -->
    <title>Overrides/Tab Bar/Icons/Active/1</title>
    <desc>Created with Sketch.</desc>
    <defs>
        <rect id="path-1" x="15" y="73" width="384" height="823" rx="13"></rect>
        <filter x="-2.7%" y="-1.3%" width="105.5%" height="102.6%" filterUnits="objectBoundingBox" id="filter-2">
            <feMorphology radius="2" operator="erode" in="SourceAlpha" result="shadowSpreadOuter1"></feMorphology>
            <feOffset dx="0" dy="0" in="shadowSpreadOuter1" result="shadowOffsetOuter1"></feOffset>
            <feGaussianBlur stdDeviation="5.5" in="shadowOffsetOuter1" result="shadowBlurOuter1"></feGaussianBlur>
            <feColorMatrix values="0 0 0 0 0   0 0 0 0 0   0 0 0 0 0  0 0 0 0.5 0" type="matrix" in="shadowBlurOuter1"></feColorMatrix>
        </filter>
    </defs>
    <g id="Page-1" stroke="none" stroke-width="1" fill="none" fill-rule="evenodd">
        <g id="Gift-open" transform="translate(-195.000000, -850.000000)">
            <g id="BG" transform="translate(0.000000, -0.000000)">
                <g id="Calendar-Copy" transform="translate(1.000000, 652.000000)">
                    <g id="day-copy-5" transform="translate(103.000000, 103.000000)">
                        <rect id="Rectangle" x="0" y="0" width="103" height="103"></rect>
                    </g>
                    <g id="day-copy-9" transform="translate(103.000000, 206.000000)">
                        <rect id="Rectangle" x="0" y="0" width="103" height="103"></rect>
                    </g>
                    <g id="day-copy-6" transform="translate(206.000000, 103.000000)">
                        <rect id="Rectangle" x="0" y="0" width="103" height="103"></rect>
                    </g>
                    <g id="day-copy-10" transform="translate(206.000000, 206.000000)">
                        <rect id="Rectangle" x="0" y="0" width="103" height="103"></rect>
                        <circle id="Oval" fill="#6CCF52" cx="50" cy="48" r="41"></circle>
                    </g>
                </g>
            </g>
            <rect id="Rectangle" fill-opacity="0.4" fill="#A1A1A1" x="0" y="0" width="414" height="896"></rect>
            <g id="Rectangle">
                <use fill="black" fill-opacity="1" filter="url(#filter-2)" xlink:href="#path-1"></use>
                <use fill="#FFFFFF" fill-rule="evenodd" xlink:href="#path-1"></use>
            </g>
            <g id="Tab-Bar-@Panels.Footers-Copy" transform="translate(1.000000, 836.000000)">
                <path d="M-0.25,-0.25 L414.25,-0.25 L414.25,60.25 L-0.25,60.25 L-0.25,-0.25 Z" id="Body" stroke-opacity="0.15" stroke="#000000" stroke-width="0.5" fill-opacity="0.92" fill="#FFFFFF"></path>
                <g id="award-bar" transform="translate(138.000000, 0.000000)">
                    <rect id="Body" x="0" y="0" width="138" height="60"></rect>
                    <g id="Tab-Bar/Icons/award/normal" transform="translate(45.000000, 13.000000)" fill="#53555B">
                        <g id="award" transform="translate(11.000000, 1.000000)">
                            <path d="M25.675,7.175 C24.85625,5.7625 23.20625,5.2375 21.6125,4.73125 C20.81875,4.5125 20.05,4.2125 19.31875,3.83125 C18.65625,3.4 18.0375,2.9 17.48125,2.34375 C16.3,1.24375 14.95625,0 13.25,0 C11.54375,0 10.2,1.24375 9.01875,2.3375 C8.4625,2.9 7.84375,3.4 7.18125,3.825 C6.45,4.2 5.68125,4.5 4.8875,4.71875 C3.29375,5.225 1.64375,5.75 0.825,7.1625 C0.03125,8.53125 0.39375,10.2 0.7375,11.80625 C0.94375,12.63125 1.06875,13.48125 1.1125,14.3375 C1.075,15.19375 0.95,16.0375 0.7375,16.86875 C0.39375,18.48125 0.03125,20.15 0.825,21.5125 C1.45625,22.45625 2.39375,23.15625 3.48125,23.48125 L0.125,27.8 C-0.0625,28.0375 -0.01875,28.3875 0.225,28.575 C0.3375,28.6625 0.4875,28.70625 0.63125,28.6875 L4.575,28.19375 L5.55,31.6 C5.60625,31.8 5.76875,31.95 5.975,31.9875 C6.0125,31.99375 6.04375,32 6.08125,32 C6.25,32 6.4125,31.91875 6.51875,31.7875 L10.04375,27.25625 C10.9125,28.1 12.05,28.60625 13.25625,28.69375 C14.4625,28.6125 15.6,28.10625 16.46875,27.25625 L19.99375,31.7875 C20.1,31.925 20.25625,32 20.43125,32 C20.46875,32 20.5,31.99375 20.5375,31.9875 C20.74375,31.95 20.90625,31.8 20.9625,31.6 L21.9375,28.19375 L25.88125,28.6875 C26.18125,28.725 26.4625,28.5125 26.5,28.20625 C26.51875,28.0625 26.475,27.9125 26.3875,27.8 L23.03125,23.48125 C24.11875,23.15625 25.05625,22.4625 25.6875,21.5125 C26.475,20.14375 26.11875,18.475 25.775,16.86875 C25.56875,16.04375 25.4375,15.19375 25.4,14.34375 C25.4375,13.4875 25.5625,12.64375 25.775,11.8125 C26.10625,10.20625 26.4625,8.5375 25.675,7.175 Z M6.30625,30.25 L5.50625,27.4375 C5.43125,27.175 5.175,27.00625 4.90625,27.04375 L1.81875,27.43125 L4.5875,23.86875 L4.89375,23.96875 C5.6875,24.1875 6.45625,24.4875 7.1875,24.8625 C7.85,25.29375 8.46875,25.79375 9.025,26.35 L9.2125,26.525 L6.30625,30.25 Z M24.6875,27.425 L21.6,27.0375 C21.33125,27.00625 21.075,27.16875 21,27.43125 L20.1875,30.25 L17.2875,26.525 L17.475,26.35 C18.03125,25.7875 18.65,25.2875 19.3125,24.8625 C20.04375,24.4875 20.8125,24.1875 21.60625,23.96875 L21.9125,23.86875 L24.6875,27.425 Z M24.68125,17.10625 C25,18.58125 25.29375,19.96875 24.71875,20.96875 C24.1125,22.0125 22.7375,22.45 21.28125,22.9125 C20.4125,23.15625 19.56875,23.4875 18.76875,23.90625 C18.03125,24.375 17.35,24.925 16.73125,25.54375 C15.59375,26.59375 14.525,27.5875 13.25,27.5875 C11.975,27.5875 10.90625,26.59375 9.76875,25.54375 C9.15,24.925 8.46875,24.375 7.73125,23.90625 C6.93125,23.4875 6.0875,23.15625 5.21875,22.9125 C3.7625,22.45 2.38125,22.0125 1.78125,20.96875 C1.20625,19.96875 1.5,18.58125 1.81875,17.10625 C2.04375,16.2 2.18125,15.28125 2.21875,14.35 C2.18125,13.41875 2.05,12.49375 1.81875,11.59375 C1.5,10.11875 1.20625,8.73125 1.78125,7.73125 C2.3875,6.6875 3.7625,6.25 5.21875,5.7875 C6.0875,5.54375 6.93125,5.2125 7.73125,4.79375 C8.46875,4.325 9.15,3.775 9.76875,3.15625 C10.90625,2.10625 11.975,1.1125 13.25,1.1125 C14.525,1.1125 15.59375,2.10625 16.73125,3.15625 C17.35,3.775 18.03125,4.325 18.76875,4.79375 C19.56875,5.2125 20.4125,5.54375 21.28125,5.7875 C22.7375,6.25 24.11875,6.6875 24.71875,7.73125 C25.29375,8.73125 25,10.11875 24.68125,11.59375 C24.45625,12.5 24.31875,13.41875 24.28125,14.35 C24.31875,15.275 24.45625,16.2 24.68125,17.10625 Z" id="Shape" fill-rule="nonzero"></path>
                            <path d="M18.725,11.5875 L15.35,11.5875 L14.3,8.375 C14.1125,7.79375 13.4875,7.48125 12.90625,7.66875 C12.575,7.775 12.3125,8.0375 12.2,8.375 L11.15625,11.5875 L7.775,11.5875 C7.1625,11.5875 6.66875,12.08125 6.66875,12.6875 C6.66875,13.0375 6.8375,13.375 7.125,13.58125 L9.8625,15.56875 L8.81875,18.78125 C8.63125,19.3625 8.95,19.98125 9.525,20.16875 C9.8625,20.275 10.23125,20.21875 10.5125,20.0125 L13.25,18.025 L15.9875,20.0125 C16.375,20.3 16.9,20.3 17.2875,20.0125 C17.68125,19.7375 17.84375,19.23125 17.6875,18.78125 L16.64375,15.56875 L19.38125,13.58125 C19.875,13.225 19.98125,12.53125 19.625,12.0375 C19.40625,11.75625 19.075,11.5875 18.725,11.5875 Z M18.725,12.6875 L15.66875,14.90625 C15.475,15.05 15.39375,15.29375 15.46875,15.525 L16.6375,19.11875 L13.58125,16.89375 C13.3875,16.75625 13.125,16.75625 12.93125,16.89375 L9.86875,19.125 L11.0375,15.53125 C11.1125,15.30625 11.03125,15.05625 10.8375,14.9125 L7.775,12.6875 L11.55625,12.6875 C11.79375,12.6875 12.00625,12.53125 12.08125,12.30625 L13.25,8.7125 L14.41875,12.30625 C14.49375,12.53125 14.70625,12.6875 14.94375,12.6875 L18.725,12.6875 Z" id="Shape" fill-rule="nonzero"></path>
                            <path d="M22,14.34375 C22,9.51875 18.075,5.59375 13.25,5.59375 C11.9375,5.59375 10.675,5.875 9.5,6.4375 C9.1875,6.5875 9.05625,6.95625 9.20625,7.26875 C9.35625,7.58125 9.725,7.7125 10.0375,7.5625 C11.04375,7.08125 12.13125,6.8375 13.25625,6.8375 C17.39375,6.8375 20.75625,10.2 20.75625,14.3375 C20.75625,18.475 17.39375,21.8375 13.25625,21.8375 C9.11875,21.8375 5.75625,18.475 5.75625,14.3375 C5.75625,13.24375 5.9875,12.1875 6.44375,11.2 C6.5875,10.8875 6.45,10.5125 6.1375,10.36875 C5.825,10.225 5.45,10.3625 5.30625,10.675 C4.775,11.825 4.50625,13.0625 4.50625,14.3375 C4.50625,19.1625 8.43125,23.0875 13.25625,23.0875 C18.08125,23.0875 22,19.16875 22,14.34375 L22,14.34375 Z" id="Path" fill-rule="nonzero"></path>
                            <path d="M7.475,9.25625 C7.81875,9.25625 8.1,8.975 8.1,8.63125 C8.1,8.2875 7.81875,8.00625 7.475,8.00625 L7.475,8.00625 C7.13125,8.00625 6.85,8.2875 6.85,8.63125 C6.85,8.98125 7.125,9.25625 7.475,9.25625 Z" id="Path" fill-rule="nonzero"></path>
                        </g>
                    </g>
                </g>
            </g>
        </g>
    </g>
</svg>