<?xml version="1.0" encoding="UTF-8"?>
<svg width="25px" height="32px" viewBox="0 0 25 32" version="1.1" xmlns="http://www.w3.org/2000/svg" xmlns:xlink="http://www.w3.org/1999/xlink">
    <!-- Generator: Sketch 60.1 (88133) - https://sketch.com -->
    <title>Overrides/Tab Bar/Icons/Active/1</title>
    <desc>Created with Sketch.</desc>
    <defs>
        <rect id="path-1" x="15" y="73" width="384" height="823" rx="13"></rect>
        <filter x="-2.7%" y="-1.3%" width="105.5%" height="102.6%" filterUnits="objectBoundingBox" id="filter-2">
            <feMorphology radius="2" operator="erode" in="SourceAlpha" result="shadowSpreadOuter1"></feMorphology>
            <feOffset dx="0" dy="0" in="shadowSpreadOuter1" result="shadowOffsetOuter1"></feOffset>
            <feGaussianBlur stdDeviation="5.5" in="shadowOffsetOuter1" result="shadowBlurOuter1"></feGaussianBlur>
            <feColorMatrix values="0 0 0 0 0   0 0 0 0 0   0 0 0 0 0  0 0 0 0.5 0" type="matrix" in="shadowBlurOuter1"></feColorMatrix>
        </filter>
    </defs>
    <g id="Page-1" stroke="none" stroke-width="1" fill="none" fill-rule="evenodd">
        <g id="Gift-open" transform="translate(-58.000000, -850.000000)">
            <g id="BG" transform="translate(0.000000, -0.000000)">
                <g id="Calendar-Copy" transform="translate(1.000000, 652.000000)">
                    <g id="day-copy-4" transform="translate(0.000000, 103.000000)">
                        <rect id="Rectangle" x="0" y="0" width="103" height="103"></rect>
                        <text id="5-декабря" font-family="Helvetica" font-size="14" font-weight="normal" fill="#939393">
                            <tspan x="18" y="101">5 декабря</tspan>
                        </text>
                    </g>
                    <g id="day-copy-8" transform="translate(0.000000, 206.000000)">
                        <rect id="Rectangle" x="0" y="0" width="103" height="103"></rect>
                        <g id="Gift/closed/locked" transform="translate(18.000000, 16.000000)">
                            <g id="gift-inactive" stroke-width="1">
                                <polygon id="Path" fill="#D8D8D8" fill-rule="nonzero" points="62.8875 13.75 0.9875 13.75 0.9875 26.9625 5.4875 26.9625 5.4875 62.85 58.3875 62.85 58.3875 26.9625 62.8875 26.9625"></polygon>
                                <polygon id="Path" fill="#B5B5B5" fill-rule="nonzero" points="5.4875 25.975 58.3875 25.975 58.3875 31.3 5.4875 31.3"></polygon>
                                <path d="M53.8625,44.475 C52.625,37.5375 50.275,30.875 46.925,24.725 C44.9625,21.1375 42.6625,17.725 40.05,14.55 C39.75,14.1875 39.4375,13.8125 39.125,13.45 C37.8,14.5875 36.475,15.725 35.15,16.8625 C34.0125,17.8375 32.875,18.825 31.725,19.8125 C30.825,19.0375 29.925,18.2625 29.0125,17.475 C27.6875,16.3375 26.3625,15.2 25.0375,14.0625 C24.725,14.425 24.4125,14.7875 24.1125,15.1625 C21.4875,18.3375 19.1875,21.75 17.2375,25.3375 C13.95,31.4125 11.6125,38 10.375,44.85 C10.2375,45.5875 11.1,46.1 11.675,45.625 C13.3375,44.25 15.0375,43 16.775,41.8625 C17.775,43.7 18.85,45.45 20.0125,47.1125 C20.425,47.7 21.325,47.4875 21.4625,46.7875 C22.65,40.275 25.0375,34.05 28.475,28.4375 C29.6375,26.525 30.9375,24.6875 32.3375,22.925 C33.5625,24.5 34.6875,26.1375 35.725,27.825 C39.2,33.5 41.6,39.7875 42.775,46.3875 C42.8875,47.0125 43.7,47.2 44.0625,46.675 C45.2625,44.975 46.3875,43.1625 47.4125,41.25 C49.2125,42.425 50.975,43.725 52.6875,45.1625 C53.2,45.575 53.975,45.1375 53.8625,44.475 Z" id="Path" fill="#B5B5B5" fill-rule="nonzero"></path>
                                <path d="M31.9375,18.125 C31.5375,18.5875 31.1375,19.0625 30.75,19.55 C29.3125,21.3375 28,23.2 26.8125,25.15 C23.05,31.3125 20.5375,38.1875 19.4875,45.3875 C17.9,43.2875 16.4375,41.0125 15.125,38.575 C12.8125,40.0875 10.5375,41.8125 8.3625,43.7625 C9.4875,36.125 11.95,28.7875 15.6125,22.0625 C17.575,18.475 19.875,15.0625 22.4875,11.8875 C22.7875,11.5125 23.1,11.15 23.4125,10.7875 C24.7375,11.925 26.0625,13.0625 27.3875,14.2 C28.7375,15.3625 30.0875,16.525 31.45,17.7 C31.6125,17.85 31.775,17.9875 31.9375,18.125 Z" id="Path" fill="#D8D8D8" fill-rule="nonzero"></path>
                                <path d="M55.5125,43.7625 C53.3375,41.8125 51.0625,40.0875 48.75,38.575 C47.4375,41.0125 45.975,43.2875 44.3875,45.3875 C43.3375,38.1875 40.825,31.3 37.0625,25.15 C35.875,23.2125 34.5625,21.3375 33.125,19.55 C32.7375,19.075 32.35,18.6 31.9375,18.125 C32.1,17.9875 32.2625,17.8375 32.4375,17.7 C33.7875,16.5375 35.15,15.3625 36.5,14.2 C37.825,13.0625 39.15,11.925 40.475,10.7875 C40.7875,11.15 41.1,11.5125 41.4,11.8875 C44.025,15.0625 46.325,18.475 48.275,22.0625 C51.925,28.775 54.3875,36.125 55.5125,43.7625 Z" id="Path" fill="#D8D8D8" fill-rule="nonzero"></path>
                                <path d="M48.2625,22.0625 L37.05,25.15 C35.8625,23.2125 34.55,21.3375 33.1125,19.55 L32.425,17.7 L31.925,16.3625 L36.475,14.2 L41.3625,11.875 C44,15.0625 46.3,18.475 48.2625,22.0625 Z" id="Path" fill="#B5B5B5" fill-rule="nonzero"></path>
                                <path d="M31.9375,16.375 L31.4375,17.7125 L30.75,19.5625 C29.3125,21.35 28,23.2125 26.8125,25.1625 L15.6125,22.075 C17.575,18.4875 19.875,15.075 22.4875,11.9 L27.375,14.225 L31.9375,16.375 Z" id="Path" fill="#B5B5B5" fill-rule="nonzero"></path>
                                <g id="Group" transform="translate(6.125000, 0.875000)" fill="#D8D8D8" fill-rule="nonzero">
                                    <path d="M43.7,0.5375 L25.8125,9.025 L29.25,18.2625 L48.3375,13.0125 C50.8375,12.325 52.2,9.65 51.3,7.225 L49.725,2.9875 C48.825,0.5625 46.0375,-0.575 43.7,0.5375 Z" id="Path"></path>
                                    <path d="M7.925,0.5375 L25.8125,9.025 L22.375,18.275 L3.2875,13.025 C0.7875,12.3375 -0.575,9.6625 0.325,7.2375 L1.9,3 C2.8,0.5625 5.5875,-0.575 7.925,0.5375 Z" id="Path"></path>
                                    <path d="M28.6125,5.85 L23,5.85 C21.4625,5.85 20.225,7.1 20.225,8.625 L20.225,16.775 C20.225,18.3125 21.475,19.55 23,19.55 L28.6125,19.55 C30.15,19.55 31.3875929,18.3 31.3875929,16.775 L31.3875929,8.6375 C31.4,7.1 30.15,5.85 28.6125,5.85 Z" id="Path"></path>
                                    <polygon id="Path" points="20.8875 26.0875 30.75 26.0875 30.75 61.975 20.8875 61.975"></polygon>
                                </g>
                                <polygon id="Path" fill="#B5B5B5" fill-rule="nonzero" points="27.0125 26.9625 36.875 26.9625 36.875 31.3 27.0125 31.3"></polygon>
                                <path d="M62.8875,12.7625 L57.6875,12.7625 C57.8375,12.55 57.975,12.325 58.1,12.1 C58.7875,10.75 58.875,9.175 58.35,7.7625 L56.775,3.525 C56.25,2.1125 55.15,0.975 53.75,0.4 C52.35,-0.1625 50.7625,-0.125 49.4,0.525 L36.925,6.45 C36.3125,6.0125 35.55,5.75 34.7375,5.75 L29.125,5.75 C28.3125,5.75 27.5625,6.0125 26.9375,6.45 L14.475,0.525 C13.1125,-0.125 11.525,-0.175 10.125,0.4 C8.725,0.9625 7.625,2.1 7.1,3.525 L5.525,7.75 C5,9.1625 5.0875,10.75 5.775,12.0875 C5.9,12.325 6.0375,12.55 6.1875,12.75 L0.9875,12.75 C0.4375,12.75 0,13.1875 0,13.7375 L0,20.8375 C0,21.3875 0.4375,21.825 0.9875,21.825 C1.5375,21.825 1.975,21.3875 1.975,20.8375 L1.975,14.725 L8.825,14.725 C8.9375,14.7625 9.05,14.8 9.1625,14.825 L17.4375,17.1 C15.6,19.9125 13.975,22.8875 12.5875,25.95 L1.975,25.95 L1.975,24.7625 C1.975,24.2125 1.5375,23.775 0.9875,23.775 C0.4375,23.775 0,24.25 0,24.7875 L0,26.9625 C0,27.5125 0.4375,27.95 0.9875,27.95 L4.5,27.95 L4.5,62.85 C4.5,63.4 4.9375,63.8375 5.4875,63.8375 L58.3875,63.8375 C58.9375,63.8375 59.375,63.4 59.375,62.85 L59.375,57.125 C59.375,56.575 58.9375,56.1375 58.3875,56.1375 C57.8375,56.1375 57.4,56.575 57.4,57.125 L57.4,61.8625 L37.85,61.8625 L37.85,28.55 C40.6375,33.8375 42.5375,39.5875 43.4,45.5375 C43.4625,45.925 43.75,46.25 44.1375,46.35 C44.2125,46.375 44.3,46.375 44.3875,46.375 C44.6875,46.375 44.9875,46.2375 45.175,45.9875 C46.5875,44.1125 47.9125,42.1 49.1,39.9875 C51.0875,41.35 53.025,42.8625 54.8625,44.5 C55.175,44.775 55.625,44.825 55.9875,44.6375 C56.35,44.4375 56.55,44.0375 56.5,43.625 C55.7125,38.25 54.25,32.975 52.1625,27.95 L57.4125,27.95 L57.4125,53.1875 C57.4125,53.7375 57.85,54.175 58.4,54.175 C58.95,54.175 59.3875,53.7375 59.3875,53.1875 L59.3875,27.95 L62.9,27.95 C63.45,27.95 63.8875,27.5125 63.8875,26.9625 L63.8875,13.75 C63.875,13.2 63.4375,12.7625 62.8875,12.7625 Z M50.25,2.3 C51.125,1.8875 52.1125,1.85 53.0125,2.225 C53.9125,2.5875 54.6,3.3 54.9375,4.2 L56.5,8.4375 C56.8375,9.35 56.775,10.325 56.3375,11.2 C55.9,12.0625 55.1375,12.6875 54.2,12.9375 L38.5125,17.2625 L38.5125,12.525 C42.0375,10.3625 50.8375,5.9125 53.025,9 C53.3375,9.45 53.95,9.55 54.4,9.2375 C54.85,8.925 54.95,8.3125 54.6375,7.8625 C52.95,5.475 49.3875,5.3625 44.0625,7.5125 C41.8625,8.4 39.8375,9.4875 38.525,10.2375 L38.525,9.5125 C38.525,8.9875 38.4125,8.4875 38.2125,8.025 L50.25,2.3 Z M29.1375,7.7125 L34.75,7.7125 C35.7375,7.7125 36.55,8.5125 36.55,9.5125 L36.55,17.6625 C36.55,18.65 35.75,19.4625 34.75,19.4625 L29.1375,19.4625 C28.15,19.4625 27.3375,18.6625 27.3375,17.6625 L27.3375,9.5125 C27.3375,8.525 28.15,7.7125 29.1375,7.7125 Z M27.475,25.975 C28.4125,24.4125 29.45,22.8875 30.55,21.425 L33.325,21.425 C34.425,22.8875 35.45,24.4125 36.4,25.975 L27.475,25.975 Z M7.5375,11.2 C7.1,10.3375 7.0375,9.35 7.375,8.4375 L8.95,4.2 C9.2875,3.2875 9.975,2.5875 10.875,2.225 C11.775,1.8625 12.7625,1.8875 13.6375,2.3 L25.6875,8.025 C25.4875,8.475 25.375,8.9875 25.375,9.5125 L25.375,10.3 C24.0625,9.55 21.9875,8.425 19.7375,7.525 C14.4,5.3625 10.85,5.4875 9.1625,7.875 C8.85,8.325 8.95,8.9375 9.4,9.25 C9.85,9.5625 10.4625,9.4625 10.775,9.0125 C12.9875,5.9 21.925,10.4625 25.3875,12.6 L25.3875,17.275 L9.675,12.9375 C8.7375,12.675 7.975,12.0625 7.5375,11.2 Z M25.8125,19.425 C26.3,20.3375 27.1625,21.0375 28.1875,21.3 C23.575,27.7375 20.4,35.125 18.9125,42.8875 C17.8625,41.3625 16.8875,39.75 15.9875,38.1 C15.8625,37.8625 15.625,37.675 15.3625,37.6125 C15.1,37.55 14.8125,37.5875 14.5875,37.7375 C12.95,38.8125 11.3375,39.9875 9.7875,41.25 C11.3875,32.8625 14.6875,24.7625 19.425,17.6625 L25.8125,19.425 Z M6.475,27.95 L11.725,27.95 C9.65,32.9625 8.175,38.25 7.3875,43.6125 C7.325,44.025 7.525,44.425 7.9,44.625 C8.2625,44.825 8.7125,44.775 9.025,44.4875 C10.8625,42.85 12.8,41.3375 14.7875,39.975 C15.975,42.075 17.3,44.0875 18.7125,45.975 C18.9,46.225 19.2,46.3625 19.5,46.3625 C19.5875,46.3625 19.6625,46.35 19.75,46.3375 C20.1375,46.2375 20.425,45.925 20.475,45.525 C21.35,39.5875 23.2375,33.8375 26.025,28.5375 L26.025,61.85 L6.475,61.85 L6.475,27.95 Z M28,61.8625 L28,27.95 L35.875,27.95 L35.875,61.8625 L28,61.8625 Z M49.2875,37.75 C49.0625,37.6 48.775,37.55 48.5125,37.625 C48.25,37.6875 48.025,37.875 47.8875,38.1125 C46.9875,39.775 46.0125,41.375 44.9625,42.9 C43.475,35.125 40.3,27.7375 35.6875,21.3125 C36.7125,21.05 37.575,20.35 38.0625,19.4375 L44.45,17.675 C49.1875,24.775 52.4875,32.875 54.0875,41.2625 C52.5375,40 50.925,38.825 49.2875,37.75 Z M61.9,25.975 L51.3,25.975 C49.9125,22.9 48.2875,19.9375 46.45,17.125 L54.725,14.85 C54.8375,14.825 54.95,14.7875 55.0625,14.75 L61.9125,14.75 L61.9125,25.975 L61.9,25.975 Z" id="Shape" fill="#53555B" fill-rule="nonzero"></path>
                            </g>
                            <circle id="Oval" fill-opacity="0.8" fill="#BBBBBB" cx="32" cy="35" r="26"></circle>
                            <g id="lock" stroke-width="1" transform="translate(16.000000, 12.000000)">
                                <path d="M26.3936,28.4074667 L5.67466667,28.4074667 C4.59946667,28.4074667 3.72906667,27.5370667 3.72906667,26.4618667 L3.72906667,12.9536 C3.72906667,6.1696 9.25013333,0.648533333 16.0341333,0.648533333 L16.0341333,0.648533333 C22.8181333,0.648533333 28.3392,6.1696 28.3392,12.9536 L28.3392,26.4618667 C28.3392,27.5370667 27.4688,28.4074667 26.3936,28.4074667 Z M7.62026667,24.5162667 L24.448,24.5162667 L24.448,12.9536 C24.448,8.31146667 20.6762667,4.53973333 16.0341333,4.53973333 C11.392,4.53973333 7.62026667,8.31146667 7.62026667,12.9536 L7.62026667,24.5162667 Z" id="Shape" fill="#CCCCCC" fill-rule="nonzero"></path>
                                <path d="M5.30773333,26.4618667 L5.30773333,12.9536 C5.30773333,6.43413333 10.4021333,1.08373333 16.8192,0.674133333 C16.5546667,0.657066667 16.2986667,0.648533333 16.0341333,0.648533333 L16.0341333,0.648533333 C9.25013333,0.648533333 3.72906667,6.1696 3.72906667,12.9536 L3.72906667,26.4618667 C3.72906667,27.5370667 4.59946667,28.4074667 5.67466667,28.4074667 L7.25333333,28.4074667 C6.17813333,28.4074667 5.30773333,27.5370667 5.30773333,26.4618667 Z" id="Path" fill="#999999" fill-rule="nonzero"></path>
                                <path d="M17.6128,4.53973333 C17.3482667,4.53973333 17.0837333,4.5568 16.8277333,4.57386667 C21.1029333,4.97493333 24.4565333,8.576 24.4565333,12.9536 L24.4565333,24.5248 L26.0266667,24.5248 L26.0266667,12.9536 C26.0266667,8.31146667 22.2549333,4.53973333 17.6128,4.53973333 Z" id="Path" fill="#999999" fill-rule="nonzero"></path>
                                <path d="M26.2144,18.5856 L5.85386667,18.5856 C3.0208,18.5856 0.7168,20.8810667 0.7168,23.7226667 L0.7168,37.8282667 C0.7168,40.6613333 3.01226667,42.9653333 5.85386667,42.9653333 L26.2144,42.9653333 C29.0474667,42.9653333 31.3514667,40.6698667 31.3514667,37.8282667 L31.3514667,23.7141333 C31.3514667,20.8810667 29.0474667,18.5856 26.2144,18.5856 Z" id="Path" fill="#FF9711" fill-rule="nonzero"></path>
                                <path d="M5.85386667,40.7978667 C4.21546667,40.7978667 2.87573333,39.4666667 2.87573333,37.8197333 L2.87573333,23.7141333 C2.87573333,22.0757333 4.20693333,20.736 5.85386667,20.736 L26.2144,20.736 C27.8528,20.736 29.1925333,22.0672 29.1925333,23.7141333 L29.1925333,37.8197333 C29.1925333,39.4581333 27.8613333,40.7978667 26.2144,40.7978667 L5.85386667,40.7978667 L5.85386667,40.7978667 Z" id="Path" fill="#FFDD50" fill-rule="nonzero"></path>
                                <path d="M19.328,29.0048 C19.328,27.1530667 17.8005333,25.6597333 15.9402667,25.7109333 C14.2336,25.7621333 12.8341333,27.136 12.7488,28.8426667 C12.6805333,30.2933333 13.5509333,31.5477333 14.7968,32.0512 L14.7968,35.3962667 C14.7968,36.0789333 15.3514667,36.6336 16.0341333,36.6336 C16.7168,36.6336 17.2714667,36.0789333 17.2714667,35.3962667 L17.2714667,32.0512 C18.4746667,31.5648 19.328,30.3872 19.328,29.0048 Z" id="Path" fill="#D67205" fill-rule="nonzero"></path>
                                <path d="M16.0341333,37.2821333 C17.0752,37.2821333 17.92,36.4373333 17.92,35.3962667 L17.92,32.4608 C19.1829333,31.7781333 19.9765333,30.464 19.9765333,29.0048 C19.9765333,27.9296 19.5498667,26.9312 18.7818667,26.1802667 C18.0138667,25.4293333 16.9984,25.0368 15.9232,25.0709333 C13.8837333,25.1306667 12.2026667,26.7776 12.1088,28.8170667 C12.0405333,30.336 12.8426667,31.7525333 14.1568,32.4693333 L14.1568,35.4048 C14.1482667,36.4373333 14.9930667,37.2821333 16.0341333,37.2821333 Z M13.3973333,28.8768 C13.4656,27.5114667 14.592,26.4021333 15.9573333,26.368 C15.9829333,26.368 16.0085333,26.368 16.0341333,26.368 C16.7253333,26.368 17.3738667,26.6325333 17.8773333,27.1189333 C18.3978667,27.6224 18.6794667,28.2965333 18.6794667,29.0133333 C18.6794667,30.0970667 18.0309333,31.0528 17.0325333,31.4624 C16.7850667,31.5648 16.6314667,31.7952 16.6314667,32.0597333 L16.6314667,35.4048 C16.6314667,35.7290667 16.3669333,35.9936 16.0426667,35.9936 C15.7184,35.9936 15.4538667,35.7290667 15.4538667,35.4048 L15.4538667,32.0597333 C15.4538667,31.7952 15.2917333,31.5562667 15.0528,31.4624 C14.0032,31.0357333 13.3376,29.9946667 13.3973333,28.8768 Z" id="Shape" fill="#333333" fill-rule="nonzero"></path>
                                <path d="M31.3514667,31.0528 C31.7098667,31.0528 32,30.7626667 32,30.4042667 L32,23.7226667 C32,21.5381333 30.7797333,19.6352 28.9877333,18.6453333 L28.9877333,12.9536 C28.9877333,9.4976 27.6394667,6.2464 25.1904,3.79733333 C22.7413333,1.34826667 19.4901333,0 16.0341333,0 C12.3904,0 8.89173333,1.55306667 6.43413333,4.26666667 C6.1952,4.5312 6.21226667,4.9408 6.4768,5.17973333 C6.74133333,5.41866667 7.15093333,5.4016 7.38986667,5.13706667 C9.6,2.69653333 12.7488,1.29706667 16.0256,1.29706667 C19.1317333,1.29706667 22.0586667,2.5088 24.2602667,4.71893333 C26.4618667,6.92053333 27.6821333,9.84746667 27.6821333,12.9536 L27.6821333,18.1248 C27.2128,17.9968 26.7178667,17.9370667 26.2058667,17.9370667 L25.088,17.9370667 L25.088,12.9536 C25.088,7.95306667 21.0261333,3.8912 16.0256,3.8912 C11.0250667,3.8912 6.9632,7.95306667 6.9632,12.9536 L6.9632,17.9370667 L5.84533333,17.9370667 C5.33333333,17.9370667 4.8384,18.0053333 4.36906667,18.1248 L4.36906667,12.9536 C4.36906667,10.9056 4.9152,8.8832 5.9392,7.1168 C6.1184,6.8096 6.016,6.40853333 5.7088,6.22933333 C5.4016,6.05013333 5.00053333,6.15253333 4.82133333,6.45973333 C3.67786667,8.4224 3.08053333,10.6666667 3.08053333,12.9450667 L3.08053333,18.6368 C1.28853333,19.6181333 0.0682666667,21.5296 0.0682666667,23.7141333 L0.0682666667,37.8197333 C0.0682666667,41.0112 2.6624,43.6053333 5.85386667,43.6053333 L26.2144,43.6053333 C29.4058667,43.6053333 32,41.0112 32,37.8197333 L32,32.9898667 C32,32.6314667 31.7098667,32.3413333 31.3514667,32.3413333 C30.9930667,32.3413333 30.7029333,32.6314667 30.7029333,32.9898667 L30.7029333,37.8197333 C30.7029333,40.2944 28.6890667,42.3082667 26.2144,42.3082667 L5.85386667,42.3082667 C3.3792,42.3082667 1.36533333,40.2944 1.36533333,37.8197333 L1.36533333,23.7141333 C1.36533333,21.2394667 3.3792,19.2256 5.85386667,19.2256 L26.2144,19.2256 C28.6890667,19.2256 30.7029333,21.2394667 30.7029333,23.7141333 L30.7029333,30.3957333 C30.7029333,30.7626667 30.9930667,31.0528 31.3514667,31.0528 Z M8.2688,12.9536 C8.2688,8.66986667 11.7504,5.18826667 16.0341333,5.18826667 C20.3178667,5.18826667 23.7994667,8.66986667 23.7994667,12.9536 L23.7994667,17.9370667 L8.2688,17.9370667 L8.2688,12.9536 Z" id="Shape" fill="#333333" fill-rule="nonzero"></path>
                            </g>
                        </g>
                    </g>
                </g>
            </g>
            <rect id="Rectangle" fill-opacity="0.4" fill="#A1A1A1" x="0" y="0" width="414" height="896"></rect>
            <g id="Rectangle">
                <use fill="black" fill-opacity="1" filter="url(#filter-2)" xlink:href="#path-1"></use>
                <use fill="#FFFFFF" fill-rule="evenodd" xlink:href="#path-1"></use>
            </g>
            <g id="Tab-Bar-@Panels.Footers-Copy" transform="translate(1.000000, 836.000000)">
                <path d="M-0.25,-0.25 L414.25,-0.25 L414.25,60.25 L-0.25,60.25 L-0.25,-0.25 Z" id="Body" stroke-opacity="0.15" stroke="#000000" stroke-width="0.5" fill-opacity="0.92" fill="#FFFFFF"></path>
                <g id="tree-bar">
                    <rect id="Body" x="0" y="0" width="138" height="60"></rect>
                    <g id="Tab-Bar/Icons/tree/active" transform="translate(45.000000, 13.000000)">
                        <g id="tree-active" transform="translate(12.000000, 1.000000)">
                            <path d="M21.4863048,27.5183598 C15.2692938,28.5470202 8.84609056,28.5470202 2.62907962,27.5183598 C0.742107454,27.2066446 -0.145144358,25.5233822 0.923306768,24.2827555 C1.89178586,23.1605806 2.86026495,22.0134685 3.83499229,20.8476535 C5.78444698,18.5097891 7.75264642,16.0784101 9.72084586,13.541048 C10.7768005,12.1819695 13.3323356,12.1819695 14.3882903,13.541048 C16.3564897,16.0784101 18.3246891,18.5160234 20.2741438,20.8476535 C21.2488712,22.0197028 22.2235985,23.1668149 23.1858294,24.2827555 C24.266777,25.5233822 23.3732769,27.2066446 21.4863048,27.5183598 Z" id="Path" fill="#9FD661" fill-rule="nonzero"></path>
                            <path d="M19.942029,20.6515381 C19.8679953,20.6698005 19.7939616,20.6819754 19.7199279,20.6941503 C14.5128925,21.5463943 9.13311189,21.5463943 3.93224596,20.6941503 C3.85821228,20.6819754 3.78417861,20.6698005 3.71014493,20.6515381 C5.63502057,18.3687417 7.57840464,15.9946334 9.52178871,13.5170384 C10.5644297,12.1899727 13.0877442,12.1899727 14.1303852,13.5170384 C16.0737693,15.9946334 18.0171533,18.3748292 19.942029,20.6515381 Z" id="Path" fill="#8BC34C" fill-rule="nonzero"></path>
                            <path d="M19.9764548,19.283903 C14.7526231,20.1614043 9.35548886,20.1614043 4.13784647,19.283903 C2.5533667,19.0206526 1.80445243,17.585311 2.70810105,16.5260415 C3.89027151,15.1283072 5.09101009,13.6929657 6.29174867,12.2012134 C7.55438099,10.6405145 8.82939206,9.02340488 10.1044031,7.36242015 C10.9894836,6.20286478 13.1371964,6.20286478 14.0222769,7.36242015 C15.297288,9.02340488 16.5661097,10.6405145 17.8349314,12.2012134 C19.03567,13.6866978 20.2302192,15.1283072 21.418579,16.5260415 C22.3036595,17.585311 21.5609346,19.0143847 19.9764548,19.283903 Z" id="Path" fill="#9FD661" fill-rule="nonzero"></path>
                            <path d="M17.6231884,12.0800327 C13.7978479,12.6689746 9.85432606,12.6689746 6.02898551,12.0800327 C7.29787896,10.5524648 8.57921254,8.96968356 9.86054612,7.34395865 C10.7500156,6.20901861 12.9083784,6.20901861 13.7978479,7.34395865 C15.0729614,8.97581837 16.354295,10.5524648 17.6231884,12.0800327 Z" id="Path" fill="#8BC34C" fill-rule="nonzero"></path>
                            <path d="M10.2857951,1.12132255 C8.33517964,3.58483633 6.38456416,5.90016883 4.47813738,8.07349427 C3.77111818,8.87614287 4.35819662,9.96280559 5.6017929,10.1665548 C9.70502935,10.8333706 13.9471446,10.8333706 18.050381,10.1665548 C19.2939773,9.96280559 19.8810557,8.87614287 19.1740365,8.07349427 C17.2676098,5.90016883 15.3169943,3.58483633 13.3663788,1.12132255 C12.6656723,0.244583306 10.9865017,0.244583306 10.2857951,1.12132255 Z" id="Path" fill="#9FD661" fill-rule="nonzero"></path>
                            <g id="Group" transform="translate(0.463768, 0.463768)" fill="#8BC34C" fill-rule="nonzero">
                                <path d="M11.5440658,0.0437713727 L11.5440658,0.0437713727 C11.5440658,0.0437713727 5.69056013,9.88607719 8.64864865,10.2550073 C7.58950255,10.1737176 6.53035644,10.0424035 5.48374461,9.87357108 C4.24911868,9.66722032 3.66627497,8.56668295 4.36819428,7.75378603 C6.26086957,5.55271128 8.19741481,3.20781632 10.13396,0.71284807 C10.4598512,0.293893503 10.9988249,0.0687835857 11.5440658,0.0437713727 Z" id="Path"></path>
                                <path d="M9.45084215,11.8495359 L8.20994908,15.5638495 L7.00665883,19.1218368 C5.88484136,19.0155349 4.76302389,18.8717147 3.64747356,18.6903762 C2.04308656,18.4277479 1.28476302,16.9957987 2.19976498,15.9390327 C3.30278104,14.6571568 4.41833137,13.3315095 5.54014884,11.974597 C5.84097141,11.6119199 6.13552683,11.2492428 6.43634939,10.8803127 L9.45084215,11.8495359 Z" id="Path"></path>
                                <path d="M6.5052879,27.7885686 C6.5052879,27.7885686 6.5052879,27.7885686 6.5052879,27.7885686 C5.07011359,27.6635076 3.63493929,27.482169 2.21229926,27.244553 C0.319623972,26.9319003 -0.57030944,25.243576 0.501370936,23.9992184 C1.38503721,22.9737176 2.28123776,21.9232047 3.17117117,20.8539326 C3.71641206,20.203615 4.26792009,19.5407914 4.81316099,18.8717147 L4.87583235,18.7716659 L8.01566784,20.5225208 C8.01566784,20.5225208 2.03055229,26.4754275 6.5052879,27.7885686 Z" id="Path"></path>
                            </g>
                            <path d="M15.3043478,30.7934711 C14.2815168,31.2865106 13.1697439,31.5362319 12.057971,31.5362319 C11.8229105,31.5362319 11.5942029,31.5234257 11.3591423,31.5042163 C10.488783,31.4209759 9.62477665,31.1840608 8.8115942,30.7934711 L9.24359738,28.2898551 L14.8723446,28.2898551 L15.0756403,29.4616242 L15.3043478,30.7934711 Z" id="Path" fill="#7F4A26" fill-rule="nonzero"></path>
                            <path d="M15.3043478,30.8720701 C14.3424584,31.3129361 13.2969264,31.5362319 12.2513944,31.5362319 C12.0303391,31.5362319 11.8152582,31.5247808 11.5942029,31.5076042 L11.5942029,29.6811594 L15.089267,29.6811594 L15.3043478,30.8720701 Z" id="Path" fill="#935D35" fill-rule="nonzero"></path>
                            <path d="M8.8115942,20.4057971 C8.8115942,21.6838982 7.77085473,22.7246377 6.49275362,22.7246377 C5.21465252,22.7246377 4.17391304,21.6838982 4.17391304,20.4057971 C4.17391304,19.127696 5.21465252,18.0869565 6.49275362,18.0869565 C7.77085473,18.0869565 8.8115942,19.1216098 8.8115942,20.4057971 Z" id="Path" fill="#EF5361" fill-rule="nonzero"></path>
                            <path d="M19.942029,14.3768116 C19.942029,15.6549127 18.9012895,16.6956522 17.6231884,16.6956522 C16.3450873,16.6956522 15.3043478,15.6549127 15.3043478,14.3768116 C15.3043478,13.0987105 16.3450873,12.057971 17.6231884,12.057971 C18.9012895,12.057971 19.942029,13.0987105 19.942029,14.3768116 Z" id="Path" fill="#EF5361" fill-rule="nonzero"></path>
                            <path d="M11.5942029,5.10144928 C11.5942029,6.37955038 10.5534634,7.42028986 9.27536232,7.42028986 C7.99726121,7.42028986 6.95652174,6.37955038 6.95652174,5.10144928 C6.95652174,3.82334817 7.99726121,2.7826087 9.27536232,2.7826087 C10.5534634,2.78869489 11.5942029,3.82334817 11.5942029,5.10144928 Z" id="Path" fill="#EF5361" fill-rule="nonzero"></path>
                            <path d="M6.95652174,22.609 C6.71580843,22.6820343 6.45557782,22.7246377 6.18884145,22.7246377 C4.82263077,22.7246377 3.71014493,21.6838982 3.71014493,20.4057971 C3.71014493,19.127696 4.82263077,18.0869565 6.18884145,18.0869565 C6.45557782,18.0869565 6.71580843,18.1234737 6.95652174,18.2025942 C5.96113967,18.506904 5.2455055,19.37723 5.2455055,20.4057971 C5.2455055,21.4343642 5.96113967,22.3046902 6.95652174,22.609 Z" id="Path" fill="#DC4250" fill-rule="nonzero"></path>
                            <path d="M18.5507246,16.5800145 C18.3100113,16.6530488 18.0497807,16.6956522 17.7830443,16.6956522 C16.4168337,16.6956522 15.3043478,15.6609989 15.3043478,14.3768116 C15.3043478,13.0987105 16.4168337,12.057971 17.7830443,12.057971 C18.0497807,12.057971 18.3100113,12.0944882 18.5507246,12.1736087 C17.5553426,12.4779185 16.8397084,13.3482445 16.8397084,14.3768116 C16.8397084,15.3992925 17.5553426,16.2757047 18.5507246,16.5800145 Z" id="Path" fill="#DC4250" fill-rule="nonzero"></path>
                            <path d="M10.2028986,7.30465214 C9.96218524,7.37768648 9.70195463,7.42028986 9.43521826,7.42028986 C8.06900758,7.42028986 6.95652174,6.37955038 6.95652174,5.10144928 C6.95652174,3.82334817 8.06900758,2.7826087 9.43521826,2.7826087 C9.70195463,2.7826087 9.96218524,2.81912587 10.2028986,2.89824641 C9.20751648,3.2025562 8.49188232,4.07288219 8.49188232,5.10144928 C8.49188232,6.13001636 9.20751648,7.00034235 10.2028986,7.30465214 Z" id="Path" fill="#DC4250" fill-rule="nonzero"></path>
                            <path d="M23.5398738,24.0983799 C23.184057,23.6798751 22.8219978,23.2613703 22.466181,22.8428655 C22.2976363,22.6429826 21.9980011,22.6179973 21.7982443,22.7866484 C21.5984875,22.9552996 21.5735179,23.255124 21.7420627,23.4550068 C22.0978795,23.8735116 22.4599386,24.2982627 22.8157554,24.7167675 C23.1466026,25.1040406 23.246481,25.5537771 23.090421,25.9847745 C22.871937,26.5844232 22.2227275,27.040406 21.3987307,27.1778255 C15.2000277,28.2022253 8.91393119,28.2022253 2.71522823,27.1778255 C1.89123147,27.040406 1.24202189,26.5844232 1.0235379,25.9847745 C0.867477907,25.5537771 0.961113903,25.1040406 1.29820349,24.7167675 C2.14092746,23.7360921 2.98365142,22.7429241 3.79516339,21.768495 C4.26334337,22.7116924 5.23091533,23.3613117 6.35454729,23.3613117 C7.92763203,23.3613117 9.20732398,22.080812 9.20732398,20.5067343 C9.20732398,20.3880539 9.20108158,20.2693734 9.18235438,20.1569393 C10.1436839,20.2131564 11.0987711,20.2381417 12.0601007,20.2381417 C14.2761526,20.2381417 16.4922045,20.0882296 18.6832868,19.7946516 C19.3012844,20.5504587 19.9380091,21.3187585 20.5684915,22.0745657 C20.6621275,22.1869998 20.7994603,22.2432169 20.9305507,22.2432169 C21.0366715,22.2432169 21.1490347,22.2057388 21.2364283,22.1307827 C21.4361851,21.9621316 21.4611547,21.6623072 21.2926099,21.4624244 C20.7869755,20.8565294 20.2750987,20.2443881 19.7757068,19.6384931 C19.8880699,19.6197541 20.0004331,19.601015 20.1127963,19.582276 C21.1240651,19.4136248 21.9355771,18.8077298 22.2289699,18.001952 C22.4724234,17.3335936 22.3288483,16.6215108 21.8356987,16.0530939 C21.4112155,15.5533867 21.0117019,15.0911575 20.6184307,14.6289284 C20.6246731,14.5727113 20.6246731,14.5164942 20.6246731,14.4602772 C20.6246731,13.00488 19.5322532,11.7993363 18.1214708,11.6244388 C17.9154716,11.3683389 17.7157148,11.1247316 17.5222004,10.8873707 C17.7718964,10.8498926 18.0278348,10.8124146 18.2712884,10.7686902 C19.0890428,10.6312707 19.7507372,10.1378099 19.9879483,9.48194417 C20.1877051,8.92601991 20.0690995,8.33886395 19.669586,7.87038844 C17.6969876,5.57798165 15.7743285,3.21686512 13.939063,0.855748585 C13.5395494,0.318563342 12.8279158,0 12.0538583,0 C11.2798007,0 10.5681671,0.318563342 10.1561687,0.849502245 C9.73168555,1.39918017 9.29471757,1.95510443 8.85774959,2.49853601 C7.44696725,2.67343354 6.34830489,3.87273082 6.34830489,5.33437439 C6.34830489,5.41557681 6.35454729,5.49053289 6.36078969,5.57173531 C5.71782251,6.34628148 5.06237054,7.12082764 4.42564577,7.8641421 C4.01988978,8.33261761 3.90752659,8.91977357 4.10728338,9.47569783 C4.34449457,10.1315635 5.00618894,10.6250244 5.82394331,10.7624439 C6.0736393,10.8061683 6.32333529,10.8436463 6.57303128,10.8811243 C5.9675185,11.6306851 5.34952093,12.3802459 4.73152335,13.1235604 C4.56297856,13.3234433 4.59419056,13.6232676 4.79394735,13.7919188 C4.88134095,13.8668749 4.99370414,13.9043529 5.09982494,13.9043529 C5.23715773,13.9043529 5.37449053,13.8481359 5.46812652,13.7357017 C6.21097209,12.8424751 6.95381766,11.9305095 7.68417844,11.0310365 C9.13241518,11.1996877 10.5931367,11.2808901 12.0538583,11.2808901 C13.5145798,11.2808901 14.9753013,11.1934413 16.4235381,11.0310365 C16.6045677,11.2559047 16.7855973,11.480773 16.9791117,11.7181339 C15.7930557,12.0679289 14.9253621,13.1610385 14.9253621,14.4602772 C14.9253621,16.0343549 16.2050541,17.3148546 17.7781388,17.3148546 C18.889286,17.3148546 19.856858,16.6777279 20.3250379,15.7470232 C20.5809763,16.0468476 20.8431571,16.3591646 21.1240651,16.6777279 C21.3924883,16.9900449 21.4673971,17.3398399 21.3425491,17.6833886 C21.1677619,18.1643568 20.6371579,18.5391372 19.9629787,18.6515713 C19.5946772,18.7140347 19.2076484,18.7702518 18.8143772,18.8264689 C15.5371173,19.288698 12.1911911,19.4136248 8.87647679,19.1950029 C8.39581201,18.2830373 7.44696725,17.6646496 6.34830489,17.6646496 C5.48685372,17.6646496 4.71279615,18.0519227 4.18843457,18.6578177 C4.17594978,18.6578177 4.16346498,18.6515713 4.14473778,18.6515713 C3.4705586,18.5391372 2.93995462,18.1706032 2.76516743,17.6833886 C2.64031944,17.3398399 2.71522823,16.9900449 2.98365142,16.6777279 C3.34571061,16.2529768 3.71401219,15.8219793 4.07607138,15.3972282 C4.24461617,15.1973453 4.21964657,14.897521 4.01988978,14.7288698 C3.82013299,14.5602186 3.5204978,14.585204 3.35195301,14.7850869 C2.99613622,15.209838 2.62783464,15.6345891 2.26577545,16.0593402 C1.77262587,16.6277572 1.63529308,17.3398399 1.87250427,18.0081983 C2.13468506,18.7265274 2.80886423,19.288698 3.6765578,19.5198126 C3.5579522,19.8321296 3.4955282,20.169432 3.4955282,20.519227 C3.4955282,20.5629514 3.4955282,20.6066758 3.5017706,20.6504002 C2.55292584,21.7934804 1.56662668,22.9552996 0.574085119,24.1108725 C0.0185115407,24.7604919 -0.143790853,25.5662698 0.130874736,26.3283232 C0.467964323,27.2527816 1.39808189,27.939879 2.55916824,28.1335155 C4.60667536,28.4708179 6.66666728,28.7019325 8.73290159,28.8206129 L8.40829681,30.713254 C8.37084241,30.9256295 8.4769632,31.1317587 8.6704776,31.2254538 C9.72544315,31.7314074 10.8927719,32 12.0663431,32 C13.2336718,32 14.407243,31.7314074 15.4559661,31.2254538 C15.6494805,31.1317587 15.7556013,30.9256295 15.7181469,30.713254 L15.3935421,28.8206129 C17.453534,28.7019325 19.513526,28.4708179 21.5610331,28.1335155 C22.7283618,27.939879 23.6584794,27.2465352 23.9893266,26.3283232 C24.2577498,25.5537771 24.0954474,24.7479992 23.5398738,24.0983799 Z M9.20732398,3.43548702 C10.2560471,3.43548702 11.1112559,4.2912356 11.1112559,5.34062073 C11.1112559,6.39000586 10.2560471,7.24575444 9.20732398,7.24575444 C8.15860082,7.24575444 7.30339205,6.39000586 7.30339205,5.34062073 C7.30339205,4.2912356 8.15860082,3.43548702 9.20732398,3.43548702 Z M7.53436084,10.0503611 C7.01624166,9.98789772 6.49188008,9.91294164 5.9800033,9.82549288 C5.49933852,9.74429045 5.12479454,9.48819051 5.00618894,9.15088815 C4.92503775,8.92601991 4.97497694,8.69490533 5.15600654,8.48252977 C5.66164092,7.88912746 6.1797601,7.28323248 6.69163688,6.67109116 C7.17230166,7.57056412 8.12114642,8.18895179 9.21356637,8.18895179 C10.7866511,8.18895179 12.0663431,6.90845208 12.0663431,5.33437439 C12.0663431,4.03513566 11.1924071,2.93577982 10.0063511,2.59223111 C10.3122287,2.20495803 10.6118639,1.81768495 10.9114991,1.43041187 C11.1487103,1.13058755 11.5731935,0.949443685 12.0601007,0.949443685 C12.5470078,0.949443685 12.971491,1.13058755 13.2087022,1.43041187 C15.0502101,3.80402108 16.9853541,6.17763029 18.9641948,8.48252977 C19.1452244,8.68865899 19.1951636,8.91977357 19.1140124,9.15088815 C18.9954068,9.48819051 18.6208628,9.74429045 18.1339556,9.82549288 C17.6220788,9.91294164 17.0977173,9.98789772 16.5795981,10.0503611 C13.5770038,10.4126488 10.5307127,10.4126488 7.53436084,10.0503611 Z M17.7843812,16.3529182 C16.7356581,16.3529182 15.8804493,15.4971696 15.8804493,14.4477845 C15.8804493,13.3983994 16.7356581,12.5426508 17.7843812,12.5426508 C18.8331044,12.5426508 19.6883132,13.3983994 19.6883132,14.4477845 C19.6883132,15.4971696 18.8331044,16.3529182 17.7843812,16.3529182 Z M6.34830489,18.6016006 C7.39702805,18.6016006 8.25223681,19.4573492 8.25223681,20.5067343 C8.25223681,21.5561195 7.39702805,22.411868 6.34830489,22.411868 C5.29958173,22.411868 4.44437296,21.5561195 4.44437296,20.5067343 C4.44437296,19.4573492 5.29958173,18.6016006 6.34830489,18.6016006 Z M14.7068782,30.4946321 C13.8703966,30.8444271 12.9590062,31.025571 12.0538583,31.025571 C11.1487103,31.025571 10.2373199,30.8444271 9.40083837,30.4946321 L9.68798876,28.8518446 C10.4807735,28.8830763 11.2673159,28.9018153 12.0601007,28.9018153 C12.8528854,28.9018153 13.6394278,28.8830763 14.4322126,28.8518446 L14.7068782,30.4946321 Z" id="Shape" fill="#333333" fill-rule="nonzero"></path>
                        </g>
                    </g>
                </g>
            </g>
        </g>
    </g>
</svg>