<?xml version="1.0" encoding="UTF-8"?>
<svg width="32px" height="32px" viewBox="0 0 32 32" version="1.1" xmlns="http://www.w3.org/2000/svg" xmlns:xlink="http://www.w3.org/1999/xlink">
    <!-- Generator: Sketch 60.1 (88133) - https://sketch.com -->
    <title>Overrides/Tab Bar/Icons/Active/1</title>
    <desc>Created with Sketch.</desc>
    <g id="Page-1" stroke="none" stroke-width="1" fill="none" fill-rule="evenodd">
        <g id="user-screen" transform="translate(-329.000000, -1082.000000)">
            <rect fill="#FFFFFF" x="0" y="0" width="414" height="1128"></rect>
            <g id="Tab-Bar-@Panels.Footers" transform="translate(0.000000, 1068.000000)">
                <path d="M-0.25,-0.25 L414.25,-0.25 L414.25,60.25 L-0.25,60.25 L-0.25,-0.25 Z" id="Body" stroke-opacity="0.15" stroke="#000000" stroke-width="0.5" fill-opacity="0.92" fill="#FFFFFF"></path>
                <g id="user-bar" transform="translate(276.000000, 0.000000)">
                    <rect id="Body" x="0" y="0" width="138" height="60"></rect>
                    <g id="Tab-Bar/Icons/user/active" transform="translate(45.000000, 13.000000)">
                        <g id="user-active" transform="translate(8.000000, 1.000000)">
                            <path d="M25.2319688,24.9575049 C25.2319688,29.5048733 21.9446394,31.11423 17.6155945,31.4074074 C17.0916179,31.4448343 16.5489279,31.4573099 15.9937622,31.4573099 C10.8912281,31.4573099 6.75555556,30.0538012 6.75555556,24.9575049 C6.75555556,19.8549708 10.8912281,15.7192982 15.9937622,15.7192982 C16.5489279,15.7192982 17.0853801,15.7692008 17.6155945,15.862768 C21.9446394,16.6300195 25.2319688,20.4101365 25.2319688,24.9575049 Z" id="Path" fill="#BEE0ED" fill-rule="nonzero"></path>
                            <path d="M25.2319688,24.9575049 C25.2319688,29.5048733 21.9446394,31.11423 17.6155945,31.4074074 C13.2865497,31.11423 9.99922027,29.5048733 9.99922027,24.9575049 C9.99922027,20.4101365 13.2865497,16.6300195 17.6155945,15.862768 C21.9446394,16.6300195 25.2319688,20.4101365 25.2319688,24.9575049 Z" id="Path" fill="#EEFAFF" fill-rule="nonzero"></path>
                            <path d="M22.7680312,12.0951267 C22.7680312,15.488499 20.3290448,18.31423 17.1040936,18.9068226 C16.6923977,18.9816764 16.2682261,19.0253411 15.8378168,19.0253411 C12.0140351,19.0253411 8.90760234,15.9251462 8.90760234,12.0951267 C8.90760234,8.27134503 12.0077973,5.16491228 15.8378168,5.16491228 C16.2682261,5.16491228 16.6923977,5.20233918 17.1040936,5.2834308 C20.3290448,5.87602339 22.7680312,8.70175439 22.7680312,12.0951267 Z" id="Path" fill="#BEE0ED" fill-rule="nonzero"></path>
                            <path d="M22.7680312,12.0951267 C22.7680312,15.488499 20.3290448,18.31423 17.1040936,18.9068226 C13.8791423,18.31423 11.4401559,15.488499 11.4401559,12.0951267 C11.4401559,8.70175439 13.8791423,5.87602339 17.1040936,5.2834308 C20.3290448,5.87602339 22.7680312,8.70175439 22.7680312,12.0951267 Z" id="Path" fill="#EEFAFF" fill-rule="nonzero"></path>
                            <path d="M17.1727096,2.38908382 L11.1781676,5.66393762 L7.35438596,7.75360624 L7.35438596,7.75360624 C6.59337232,5.41442495 7.57270955,2.79454191 9.81208577,1.57192982 L10.6479532,1.1165692 C11.0658869,0.885769981 11.5025341,0.723586745 11.9454191,0.61754386 C13.8666667,0.162183236 15.9126706,0.835867446 17.1727096,2.38908382 Z" id="Path" fill="#EF5361" fill-rule="nonzero"></path>
                            <path d="M11.0097466,5.04639376 C11.2280702,5.19610136 11.2717349,5.40818713 11.1844055,5.66393762 L7.36062378,7.75360624 L7.36062378,7.75360624 C6.59961014,5.41442495 7.57894737,2.79454191 9.81832359,1.57192982 L10.654191,1.1165692 C11.0721248,0.885769981 11.5087719,0.723586745 11.9516569,0.61754386 C10.6479532,1.11033138 9.64990253,4.13567251 11.0097466,5.04639376 Z" id="Path" fill="#DC4250" fill-rule="nonzero"></path>
                            <path d="M19.1001949,6.41871345 C16.6861598,7.11111111 14.3968811,8.16530214 12.3196881,9.55009747 C11.402729,10.1551657 10.5294347,10.8288499 9.69980507,11.5524366 C9.11968811,12.0576998 8.2214425,11.8955166 7.85341131,11.2218324 L6.87407407,9.42534113 C6.60584795,8.93879142 6.71189084,8.3337232 7.11734893,7.95945419 C7.99688109,7.14853801 8.93255361,6.40623782 9.91812865,5.73879142 C12.219883,4.17933723 14.7773879,3.0128655 17.4783626,2.3079922 C18.0148148,2.17076023 18.5762183,2.40779727 18.8444444,2.89434698 L19.8237817,4.68460039 C20.1918129,5.3582846 19.8424951,6.20662768 19.1001949,6.41871345 Z" id="Path" fill="#EF5361" fill-rule="nonzero"></path>
                            <path d="M12.3196881,9.55009747 C11.402729,10.1551657 10.5294347,10.8288499 9.69980507,11.5524366 C9.11968811,12.0576998 8.2214425,11.8955166 7.85341131,11.2218324 L6.87407407,9.42534113 C6.60584795,8.93879142 6.71189084,8.3337232 7.11734893,7.95945419 C7.99688109,7.14853801 8.93255361,6.40623782 9.91812865,5.73879142 C9.10721248,6.35009747 10.928655,10.0615984 12.3196881,9.55009747 C12.3196881,9.55009747 12.3196881,9.55009747 12.3196881,9.55009747 Z" id="Path" fill="#DC4250" fill-rule="nonzero"></path>
                            <path d="M13.7793372,10.5730994 C13.7793372,11.1469786 13.311501,11.6148148 12.7376218,11.6148148 C12.1637427,11.6148148 11.6959064,11.1469786 11.6959064,10.5730994 C11.6959064,9.99922027 12.1637427,9.53138402 12.7376218,9.53138402 C13.311501,9.53138402 13.7793372,9.99922027 13.7793372,10.5730994 Z" id="Path" fill="#73ACFF" fill-rule="nonzero"></path>
                            <path d="M19.4432749,10.5730994 C19.4432749,11.1469786 18.9754386,11.6148148 18.4015595,11.6148148 C17.8276803,11.6148148 17.3598441,11.1469786 17.3598441,10.5730994 C17.3598441,9.99922027 17.8276803,9.53138402 18.4015595,9.53138402 C18.9816764,9.53138402 19.4432749,9.99922027 19.4432749,10.5730994 Z" id="Path" fill="#73ACFF" fill-rule="nonzero"></path>
                            <path d="M17.4471735,21.9695906 C17.4471735,22.6245614 16.9169591,23.1547758 16.2619883,23.1547758 C15.6070175,23.1547758 15.0768031,22.6245614 15.0768031,21.9695906 C15.0768031,21.3146199 15.6070175,20.7844055 16.2619883,20.7844055 C16.9107212,20.7781676 17.4471735,21.3146199 17.4471735,21.9695906 Z" id="Path" fill="#73ACFF" fill-rule="nonzero"></path>
                            <path d="M17.4471735,26.0990253 C17.4471735,26.7539961 16.9169591,27.2842105 16.2619883,27.2842105 C15.6070175,27.2842105 15.0768031,26.7539961 15.0768031,26.0990253 C15.0768031,25.4440546 15.6070175,24.9138402 16.2619883,24.9138402 C16.9107212,24.9138402 17.4471735,25.4440546 17.4471735,26.0990253 Z" id="Path" fill="#73ACFF" fill-rule="nonzero"></path>
                            <g id="Group" fill="#333333" fill-rule="nonzero">
                                <path d="M18.4015595,9.05730994 C17.565692,9.05730994 16.88577,9.73723197 16.88577,10.5730994 C16.88577,11.4089669 17.565692,12.0888889 18.4015595,12.0888889 C19.2374269,12.0888889 19.9173489,11.4089669 19.9173489,10.5730994 C19.9173489,9.73723197 19.2374269,9.05730994 18.4015595,9.05730994 Z M18.4015595,11.1407407 C18.0896686,11.1407407 17.8339181,10.8849903 17.8339181,10.5730994 C17.8339181,10.2612086 18.0896686,10.0054581 18.4015595,10.0054581 C18.7134503,10.0054581 18.9692008,10.2612086 18.9692008,10.5730994 C18.9692008,10.8849903 18.7134503,11.1407407 18.4015595,11.1407407 Z" id="Shape"></path>
                                <path d="M18.894347,13.2304094 C18.077193,14.0475634 16.9918129,14.4966862 15.8378168,14.4966862 C14.6838207,14.4966862 13.5984405,14.0475634 12.7812865,13.2304094 C12.594152,13.0432749 12.2947368,13.0432749 12.1076023,13.2304094 C11.9204678,13.4175439 11.9204678,13.7169591 12.1076023,13.9040936 C13.105653,14.9021442 14.4280702,15.4510721 15.8378168,15.4510721 C17.2475634,15.4510721 18.5699805,14.9021442 19.5680312,13.9040936 C19.7551657,13.7169591 19.7551657,13.4175439 19.5680312,13.2304094 C19.3808967,13.0432749 19.0814815,13.0432749 18.894347,13.2304094 Z" id="Path"></path>
                                <path d="M16.2557505,23.6288499 C17.1727096,23.6288499 17.9212476,22.8803119 17.9212476,21.9633528 C17.9212476,21.0463938 17.1727096,20.2978558 16.2557505,20.2978558 C15.3387914,20.2978558 14.5902534,21.0463938 14.5902534,21.9633528 C14.5964912,22.8865497 15.3387914,23.6288499 16.2557505,23.6288499 Z M16.2557505,21.2584795 C16.6487329,21.2584795 16.9668616,21.5766082 16.9668616,21.9695906 C16.9668616,22.3625731 16.6487329,22.6807018 16.2557505,22.6807018 C15.862768,22.6807018 15.5446394,22.3625731 15.5446394,21.9695906 C15.5446394,21.5766082 15.862768,21.2584795 16.2557505,21.2584795 Z" id="Shape"></path>
                                <path d="M16.2557505,27.7645224 C17.1727096,27.7645224 17.9212476,27.0159844 17.9212476,26.0990253 C17.9212476,25.1820663 17.1727096,24.4335283 16.2557505,24.4335283 C15.3387914,24.4335283 14.5902534,25.1820663 14.5902534,26.0990253 C14.5964912,27.0159844 15.3387914,27.7645224 16.2557505,27.7645224 Z M16.2557505,25.3879142 C16.6487329,25.3879142 16.9668616,25.7060429 16.9668616,26.0990253 C16.9668616,26.4920078 16.6487329,26.8101365 16.2557505,26.8101365 C15.862768,26.8101365 15.5446394,26.4920078 15.5446394,26.0990253 C15.5446394,25.7060429 15.862768,25.3879142 16.2557505,25.3879142 Z" id="Shape"></path>
                                <path d="M30.8584795,15.014425 L29.785575,14.3220273 L31.0019493,13.311501 C31.2015595,13.1430799 31.2327485,12.8436647 31.0643275,12.6440546 C30.8959064,12.4444444 30.5964912,12.4132554 30.3968811,12.5816764 L29.4674464,13.3551657 L29.4674464,12.4693957 C29.4674464,12.2074074 29.2553606,11.9953216 28.9933723,11.9953216 C28.731384,11.9953216 28.5192982,12.2074074 28.5192982,12.4693957 L28.5192982,14.1723197 L26.4795322,16.2120858 L26.4795322,15.694347 C26.4795322,15.4323587 26.2674464,15.2202729 26.0054581,15.2202729 C25.7434698,15.2202729 25.531384,15.4323587 25.531384,15.694347 L25.531384,17.1602339 L23.6849903,19.0066277 C23.0612086,18.2019493 22.3064327,17.4908382 21.4643275,16.9169591 C22.5808967,15.6194932 23.2608187,13.9290448 23.2608187,12.0888889 C23.2608187,10.9411306 23.0050682,9.84327485 22.4998051,8.8202729 C22.3812865,8.58323587 22.1005848,8.48966862 21.8635478,8.60194932 C21.6265107,8.71423002 21.5329435,9.00116959 21.6452242,9.23820663 C22.0818713,10.1302144 22.3064327,11.0846004 22.3064327,12.0888889 C22.3064327,15.6506823 19.4120858,18.5450292 15.8502924,18.5450292 C12.3446394,18.5450292 9.48148148,15.7380117 9.40038986,12.2510721 C9.63118908,12.1824561 9.84327485,12.0701754 10.0241715,11.9079922 C10.4233918,11.5524366 10.8413255,11.2155945 11.2654971,10.8912281 C11.4152047,11.5773879 12.0202729,12.0888889 12.7500975,12.0888889 C13.5859649,12.0888889 14.2658869,11.4089669 14.2658869,10.5730994 C14.2658869,10.0491228 14.0038986,9.58752437 13.5984405,9.31929825 C15.3699805,8.27134503 17.2725146,7.4417154 19.2436647,6.87407407 C19.337232,6.84912281 19.4245614,6.81169591 19.505653,6.77426901 C20.0296296,7.13606238 20.4974659,7.56647173 20.8966862,8.07173489 C20.9902534,8.19025341 21.1274854,8.25263158 21.2709552,8.25263158 C21.3769981,8.25263158 21.4768031,8.2214425 21.5641326,8.14658869 C21.7699805,7.98440546 21.8011696,7.68499025 21.6389864,7.4791423 C21.2272904,6.96140351 20.7532164,6.5122807 20.2230019,6.11929825 C20.2604288,6.05068226 20.2978558,5.98206628 20.3290448,5.91345029 C20.528655,5.43937622 20.4974659,4.90916179 20.254191,4.46003899 L19.2748538,2.66354776 C18.9068226,1.98362573 18.1208577,1.64678363 17.3723197,1.84639376 C17.3660819,1.84639376 17.3598441,1.85263158 17.3473684,1.85263158 C15.5883041,-0.0686159844 12.7251462,-0.567641326 10.417154,0.698635478 L9.58128655,1.1539961 C7.27329435,2.41403509 6.14424951,5.09005848 6.81169591,7.59766082 C6.80545809,7.60389864 6.79922027,7.61013645 6.79298246,7.61637427 C6.22534113,8.14035088 6.08187135,8.98245614 6.45614035,9.65614035 L7.43547758,11.4463938 C7.65380117,11.8393762 8.00935673,12.1263158 8.43976608,12.2510721 C8.47719298,14.0912281 9.19454191,15.7754386 10.348538,17.0479532 C9.48148148,17.6717349 8.72670565,18.4202729 8.11539961,19.2748538 L3.0502924,15.5508772 L3.0502924,13.7980507 C3.0502924,13.5360624 2.83820663,13.3239766 2.57621832,13.3239766 C2.31423002,13.3239766 2.10214425,13.5360624 2.10214425,13.7980507 L2.10214425,15.2015595 L0.580116959,14.8584795 C0.324366472,14.8023392 0.0686159844,14.9582846 0.0124756335,15.2140351 C-0.0436647173,15.4697856 0.112280702,15.7255361 0.374269006,15.7816764 L1.92748538,16.1309942 L1.47836257,17.2288499 C1.3785575,17.4721248 1.49707602,17.7465887 1.73411306,17.8463938 C1.79025341,17.871345 1.85263158,17.8838207 1.91500975,17.8838207 C2.10214425,17.8838207 2.27680312,17.77154 2.35165692,17.5906433 L2.78206628,16.5364522 L7.59766082,20.0795322 C6.99883041,21.1087719 6.5871345,22.2502924 6.4,23.4479532 C6.37504873,23.6101365 6.4374269,23.7660819 6.5497076,23.8721248 C6.61832359,23.9345029 6.6994152,23.9781676 6.79922027,23.9968811 C6.89902534,24.0093567 6.99259259,23.9968811 7.07368421,23.9594542 C7.21091618,23.897076 7.31695906,23.7660819 7.34191033,23.6038986 C7.71617934,21.2210526 9.05730994,19.1064327 11.0471735,17.7403509 C12.3384016,18.8444444 14.0163743,19.5118908 15.8440546,19.5118908 C17.7341131,19.5118908 19.4619883,18.8007797 20.7719298,17.6280702 C21.9196881,18.3766082 22.8865497,19.3933723 23.5789474,20.5785575 C24.0530214,21.3957115 24.3898635,22.2877193 24.5832359,23.217154 C24.5832359,23.217154 24.5894737,23.217154 24.5894737,23.217154 C24.7079922,23.7847953 24.7641326,24.3773879 24.7641326,24.9762183 C24.7641326,26.9723197 24.1091618,28.425731 22.7680312,29.4175439 C21.5953216,30.2846004 19.8487329,30.8023392 17.5844055,30.9582846 C17.0853801,30.9894737 16.5489279,31.0081871 15.9937622,31.0081871 C13.311501,31.0081871 11.302924,30.6214425 9.8619883,29.8292398 C8.21520468,28.9185185 7.35438596,27.4900585 7.23586745,25.462768 C7.22339181,25.2070175 6.99883041,25.0074074 6.74307992,25.019883 C6.48732943,25.0323587 6.2877193,25.2569201 6.30019493,25.5126706 C6.4374269,27.8580897 7.4791423,29.5859649 9.40662768,30.6463938 C10.9910331,31.5196881 13.1430799,31.9438596 15.9875244,31.9438596 C16.5614035,31.9438596 17.122807,31.9251462 17.6405458,31.8939571 C20.1231969,31.7255361 21.9820663,31.1641326 23.3169591,30.1723197 C24.8951267,29.005848 25.6935673,27.2592593 25.6935673,24.9762183 C25.6935673,24.2838207 25.6187135,23.5976608 25.4752437,22.9239766 C25.4752437,22.9239766 25.4814815,22.9239766 25.4814815,22.9239766 C25.2693957,21.9321637 24.9013645,20.9840156 24.3898635,20.1044834 C24.3337232,20.0109162 24.2775828,19.9111111 24.2152047,19.8175439 L26.3235867,17.7091618 L26.3235867,17.7091618 L29.0432749,14.9894737 L30.3345029,15.8253411 C30.4155945,15.8752437 30.502924,15.9001949 30.5902534,15.9001949 C30.7461988,15.9001949 30.8959064,15.8253411 30.9894737,15.6818713 C31.1454191,15.4510721 31.0830409,15.1578947 30.8584795,15.014425 Z M12.7376218,11.1407407 C12.425731,11.1407407 12.1699805,10.8849903 12.1699805,10.5730994 C12.1699805,10.2612086 12.425731,10.0054581 12.7376218,10.0054581 C13.0495127,10.0054581 13.3052632,10.2612086 13.3052632,10.5730994 C13.3052632,10.8849903 13.0495127,11.1407407 12.7376218,11.1407407 Z M10.0366472,1.98986355 L10.8725146,1.53450292 C12.6502924,0.561403509 14.8210526,0.842105263 16.2931774,2.1582846 C13.1306043,3.14385965 10.1676413,4.75945419 7.63508772,6.88654971 C7.31695906,4.93411306 8.2588694,2.95672515 10.0366472,1.98986355 Z M8.782846,11.3653021 C8.56452242,11.3278752 8.37738791,11.1906433 8.27134503,10.997271 L7.2920078,9.20701754 C7.12982456,8.91384016 7.19220273,8.54580897 7.4417154,8.32124756 C10.3111111,5.67641326 13.8292398,3.76140351 17.6031189,2.76959064 C17.6654971,2.75087719 17.7278752,2.74463938 17.7902534,2.74463938 C18.0522417,2.74463938 18.3017544,2.88810916 18.4327485,3.1251462 L19.4120858,4.91539961 C19.5181287,5.10877193 19.5306043,5.33957115 19.4432749,5.5454191 C19.3559454,5.75126706 19.1875244,5.90097466 18.9754386,5.96335283 C15.4573099,6.97387914 12.1387914,8.782846 9.38791423,11.1968811 C9.21949318,11.3403509 9.00116959,11.402729 8.782846,11.3653021 Z" id="Shape"></path>
                            </g>
                        </g>
                    </g>
                </g>
            </g>
        </g>
    </g>
</svg>