<?xml version="1.0" encoding="UTF-8"?>
<svg width="25px" height="32px" viewBox="0 0 25 32" version="1.1" xmlns="http://www.w3.org/2000/svg" xmlns:xlink="http://www.w3.org/1999/xlink">
    <!-- Generator: Sketch 60.1 (88133) - https://sketch.com -->
    <title>Overrides/Tab Bar/Icons/Active/1</title>
    <desc>Created with Sketch.</desc>
    <g id="Page-1" stroke="none" stroke-width="1" fill="none" fill-rule="evenodd">
        <g id="award-screen" transform="translate(-57.000000, -1337.000000)">
            <rect fill="#FFFFFF" x="0" y="0" width="414" height="1383"></rect>
            <g id="Tab-Bar-@Panels.Footers" transform="translate(0.000000, 1323.000000)">
                <path d="M-0.25,-0.25 L414.25,-0.25 L414.25,60.25 L-0.25,60.25 L-0.25,-0.25 Z" id="Body" stroke-opacity="0.15" stroke="#000000" stroke-width="0.5" fill-opacity="0.92" fill="#FFFFFF"></path>
                <g id="tree-bar">
                    <rect id="Body" x="0" y="0" width="138" height="60"></rect>
                    <g id="Tab-Bar/Icons/tree/normal" transform="translate(45.000000, 13.000000)" fill="#53555B">
                        <g id="tree" transform="translate(12.000000, 1.000000)">
                            <path d="M23.5290448,24.0654971 C23.1734893,23.6475634 22.8116959,23.2296296 22.4561404,22.8116959 C22.2877193,22.6120858 21.9883041,22.5871345 21.788694,22.7555556 C21.5890838,22.9239766 21.5641326,23.2233918 21.7325536,23.4230019 C22.0881092,23.8409357 22.4499025,24.2651072 22.8054581,24.6830409 C23.1360624,25.0697856 23.2358674,25.5189084 23.079922,25.9493177 C22.8615984,26.5481481 22.2128655,27.0035088 21.3894737,27.1407407 C15.1953216,28.1637427 8.91384016,28.1637427 2.71968811,27.1407407 C1.8962963,27.0035088 1.24756335,26.5481481 1.02923977,25.9493177 C0.873294347,25.5189084 0.966861598,25.0697856 1.3037037,24.6830409 C2.14580897,23.7037037 2.98791423,22.7118908 3.79883041,21.7387914 C4.26666667,22.6807018 5.23352827,23.3294347 6.35633528,23.3294347 C7.92826511,23.3294347 9.20701754,22.0506823 9.20701754,20.4787524 C9.20701754,20.3602339 9.20077973,20.2417154 9.18206628,20.1294347 C10.1426901,20.185575 11.097076,20.2105263 12.0576998,20.2105263 C14.2721248,20.2105263 16.4865497,20.0608187 18.6760234,19.7676413 C19.2935673,20.5224172 19.9298246,21.2896686 20.5598441,22.0444444 C20.6534113,22.1567251 20.7906433,22.2128655 20.9216374,22.2128655 C21.0276803,22.2128655 21.139961,22.1754386 21.2272904,22.1005848 C21.4269006,21.9321637 21.4518519,21.6327485 21.2834308,21.4331384 C20.7781676,20.8280702 20.2666667,20.2167641 19.7676413,19.6116959 C19.879922,19.5929825 19.9922027,19.574269 20.1044834,19.5555556 C21.1150097,19.3871345 21.9259259,18.7820663 22.2191033,17.9773879 C22.4623782,17.3099415 22.3189084,16.5988304 21.8261209,16.0311891 C21.4019493,15.5321637 21.002729,15.0705653 20.6097466,14.6089669 C20.6159844,14.5528265 20.6159844,14.4966862 20.6159844,14.4405458 C20.6159844,12.9871345 19.5243665,11.7832359 18.1146199,11.608577 C17.9087719,11.3528265 17.7091618,11.1095517 17.5157895,10.8725146 C17.7653021,10.8350877 18.0210526,10.7976608 18.2643275,10.7539961 C19.0814815,10.6167641 19.7426901,10.1239766 19.9797271,9.46900585 C20.1793372,8.91384016 20.0608187,8.32748538 19.6615984,7.85964912 C17.6904483,5.57037037 15.7692008,3.21247563 13.9352827,0.854580897 C13.5360624,0.318128655 12.8249513,0 12.051462,0 C11.2779727,0 10.5668616,0.318128655 10.1551657,0.84834308 C9.73099415,1.39727096 9.29434698,1.95243665 8.85769981,2.49512671 C7.44795322,2.66978558 6.35009747,3.86744639 6.35009747,5.32709552 C6.35009747,5.40818713 6.35633528,5.48304094 6.3625731,5.56413255 C5.72007797,6.33762183 5.06510721,7.11111111 4.4288499,7.85341131 C4.02339181,8.32124756 3.91111111,8.90760234 4.11072125,9.46276803 C4.34775828,10.1177388 5.00896686,10.6105263 5.82612086,10.7477583 C6.07563353,10.791423 6.3251462,10.8288499 6.57465887,10.8662768 C5.96959064,11.6148148 5.35204678,12.3633528 4.73450292,13.105653 C4.56608187,13.3052632 4.59727096,13.6046784 4.79688109,13.7730994 C4.88421053,13.8479532 4.99649123,13.8853801 5.10253411,13.8853801 C5.23976608,13.8853801 5.37699805,13.8292398 5.4705653,13.7169591 C6.2128655,12.8249513 6.95516569,11.91423 7.68499025,11.0159844 C9.13216374,11.1844055 10.5918129,11.2654971 12.051462,11.2654971 C13.5111111,11.2654971 14.9707602,11.1781676 16.4179337,11.0159844 C16.5988304,11.2405458 16.7797271,11.4651072 16.9730994,11.7021442 C15.7879142,12.051462 14.9208577,13.1430799 14.9208577,14.4405458 C14.9208577,16.0124756 16.1996101,17.2912281 17.77154,17.2912281 C18.8818713,17.2912281 19.8487329,16.6549708 20.3165692,15.7255361 C20.5723197,16.0249513 20.834308,16.3368421 21.1150097,16.6549708 C21.3832359,16.9668616 21.4580897,17.3161793 21.3333333,17.6592593 C21.1586745,18.1395712 20.62846,18.5138402 19.9547758,18.6261209 C19.5867446,18.688499 19.2,18.7446394 18.8070175,18.8007797 C15.5321637,19.2623782 12.188694,19.3871345 8.87641326,19.1688109 C8.39610136,18.2580897 7.44795322,17.6405458 6.35009747,17.6405458 C5.48927875,17.6405458 4.71578947,18.0272904 4.19181287,18.6323587 C4.17933723,18.6323587 4.1668616,18.6261209 4.14814815,18.6261209 C3.47446394,18.5138402 2.94424951,18.145809 2.76959064,17.6592593 C2.64483431,17.3161793 2.71968811,16.9668616 2.98791423,16.6549708 C3.3497076,16.2307992 3.71773879,15.8003899 4.07953216,15.3762183 C4.24795322,15.1766082 4.22300195,14.877193 4.02339181,14.7087719 C3.82378168,14.5403509 3.52436647,14.5653021 3.35594542,14.7649123 C3.00038986,15.1890838 2.63235867,15.6132554 2.2705653,16.0374269 C1.77777778,16.6050682 1.64054581,17.3161793 1.87758285,17.9836257 C2.13957115,18.7009747 2.81325536,19.2623782 3.68031189,19.4931774 C3.56179337,19.8050682 3.4994152,20.1419103 3.4994152,20.4912281 C3.4994152,20.5348928 3.4994152,20.5785575 3.50565302,20.6222222 C2.55750487,21.7637427 1.57192982,22.9239766 0.580116959,24.0779727 C0.0249512671,24.7267057 -0.137231969,25.531384 0.137231969,26.2923977 C0.474074074,27.2155945 1.40350877,27.9017544 2.56374269,28.0951267 C4.60974659,28.4319688 6.66822612,28.662768 8.73294347,28.7812865 L8.408577,30.671345 C8.3711501,30.8834308 8.47719298,31.0892788 8.6705653,31.182846 C9.72475634,31.6881092 10.8912281,31.9563353 12.0639376,31.9563353 C13.2304094,31.9563353 14.4031189,31.6881092 15.4510721,31.182846 C15.6444444,31.0892788 15.7504873,30.8834308 15.7130604,30.671345 L15.388694,28.7812865 C17.4471735,28.662768 19.505653,28.4319688 21.5516569,28.0951267 C22.7181287,27.9017544 23.6475634,27.2093567 23.9781676,26.2923977 C24.2463938,25.5189084 24.0842105,24.71423 23.5290448,24.0654971 Z M9.20701754,3.43079922 C10.2549708,3.43079922 11.1095517,4.28538012 11.1095517,5.33333333 C11.1095517,6.38128655 10.2549708,7.23586745 9.20701754,7.23586745 C8.15906433,7.23586745 7.30448343,6.38128655 7.30448343,5.33333333 C7.30448343,4.28538012 8.15906433,3.43079922 9.20701754,3.43079922 Z M7.53528265,10.0366472 C7.01754386,9.97426901 6.49356725,9.8994152 5.98206628,9.81208577 C5.50175439,9.73099415 5.12748538,9.47524366 5.00896686,9.13840156 C4.92787524,8.91384016 4.97777778,8.68304094 5.15867446,8.47095517 C5.66393762,7.87836257 6.18167641,7.27329435 6.69317739,6.6619883 C7.17348928,7.56023392 8.12163743,8.17777778 9.21325536,8.17777778 C10.7851852,8.17777778 12.0639376,6.89902534 12.0639376,5.32709552 C12.0639376,4.02962963 11.1906433,2.93177388 10.0054581,2.58869396 C10.3111111,2.20194932 10.6105263,1.81520468 10.9099415,1.42846004 C11.1469786,1.12904483 11.5711501,0.948148148 12.0576998,0.948148148 C12.5442495,0.948148148 12.9684211,1.12904483 13.2054581,1.42846004 C15.045614,3.79883041 16.9793372,6.16920078 18.9567251,8.47095517 C19.1376218,8.67680312 19.1875244,8.90760234 19.1064327,9.13840156 C18.9879142,9.47524366 18.6136452,9.73099415 18.1270955,9.81208577 C17.6155945,9.8994152 17.0916179,9.97426901 16.5738791,10.0366472 C13.5734893,10.3984405 10.5294347,10.3984405 7.53528265,10.0366472 Z M17.7777778,16.3306043 C16.7298246,16.3306043 15.8752437,15.4760234 15.8752437,14.4280702 C15.8752437,13.380117 16.7298246,12.5255361 17.7777778,12.5255361 C18.825731,12.5255361 19.6803119,13.380117 19.6803119,14.4280702 C19.6803119,15.4760234 18.825731,16.3306043 17.7777778,16.3306043 Z M6.35009747,18.5762183 C7.39805068,18.5762183 8.25263158,19.4307992 8.25263158,20.4787524 C8.25263158,21.5267057 7.39805068,22.3812865 6.35009747,22.3812865 C5.30214425,22.3812865 4.44756335,21.5267057 4.44756335,20.4787524 C4.44756335,19.4307992 5.30214425,18.5762183 6.35009747,18.5762183 Z M14.7025341,30.4530214 C13.8666667,30.8023392 12.9559454,30.9832359 12.051462,30.9832359 C11.1469786,30.9832359 10.2362573,30.8023392 9.40038986,30.4530214 L9.68732943,28.8124756 C10.4795322,28.8436647 11.2654971,28.8623782 12.0576998,28.8623782 C12.8499025,28.8623782 13.6358674,28.8436647 14.4280702,28.8124756 L14.7025341,30.4530214 Z" id="Shape" fill-rule="nonzero"></path>
                        </g>
                    </g>
                </g>
            </g>
        </g>
    </g>
</svg>